<?xml version="1.0" standalone="no"?>
<!DOCTYPE svg PUBLIC "-//W3C//DTD SVG 20010904//EN"
 "http://www.w3.org/TR/2001/REC-SVG-20010904/DTD/svg10.dtd">
<svg version="1.0" xmlns="http://www.w3.org/2000/svg"
 width="800.000000pt" height="800.000000pt" viewBox="0 0 800.000000 800.000000"
 preserveAspectRatio="xMidYMid meet">
<metadata>
Created by potrace 1.11, written by Peter Selinger 2001-2013
</metadata>
<g transform="translate(0.000000,800.000000) scale(0.100000,-0.100000)"
fill="#000000" stroke="none">
<path d="M5217 7809 c-23 -24 -65 -71 -94 -105 -49 -58 -54 -61 -120 -73 -37
-7 -77 -19 -88 -26 -22 -14 -67 -22 -160 -30 -33 -3 -78 -7 -100 -9 -22 -2
-80 -7 -130 -11 -49 -3 -110 -8 -135 -10 -25 -2 -81 -7 -125 -10 -95 -8 -125
-23 -125 -65 0 -45 33 -62 111 -55 35 3 92 8 127 10 34 3 90 7 125 10 122 9
193 15 252 22 55 6 105 6 195 2 19 -1 55 1 80 5 l45 8 42 -70 c62 -100 86
-124 119 -116 36 9 200 90 208 103 4 5 8 51 10 101 3 51 7 94 10 97 2 3 15 -2
28 -11 69 -48 158 30 118 104 -15 27 -160 112 -196 114 -17 2 -48 12 -68 24
-68 40 -82 39 -129 -9z m53 -53 c-17 -22 -54 -68 -84 -100 -49 -55 -54 -58
-64 -40 -8 16 -5 26 21 55 18 20 54 62 81 93 38 45 51 54 62 45 11 -9 8 -18
-16 -53z m147 -37 c-3 -10 -1 -19 4 -19 8 0 13 22 10 43 0 4 3 7 8 7 14 0 94
-47 124 -74 23 -20 26 -27 18 -49 -6 -14 -19 -28 -29 -31 -27 -9 -122 51 -122
75 0 22 -16 25 -27 5 -17 -28 -67 -86 -75 -86 -4 0 -8 14 -8 30 0 17 -3 30 -7
30 -5 0 -7 -20 -7 -45 1 -37 -24 -174 -42 -224 -6 -18 -106 134 -108 164 -2
18 38 77 87 130 11 11 26 30 34 43 11 16 19 20 28 12 9 -8 12 -4 9 17 -4 42 3
45 58 17 39 -20 49 -29 45 -45z m18 -159 c-2 -36 -3 -84 -4 -107 -1 -42 -2
-43 -58 -68 -32 -15 -66 -30 -75 -36 -27 -14 -28 -12 -23 24 21 129 42 185 91
240 48 55 49 55 61 34 6 -13 10 -51 8 -87z m-305 31 c13 -25 13 -51 0 -51 -5
0 -10 8 -10 17 0 9 -7 25 -17 35 -15 16 -15 18 0 18 9 0 21 -9 27 -19z m-36
-26 c11 -28 -5 -45 -43 -46 -20 0 -55 -2 -78 -5 -41 -6 -43 -5 -43 20 0 14 6
26 13 26 28 1 122 13 126 16 9 8 19 3 25 -11z m-179 -26 c10 -10 -7 -32 -27
-34 -58 -8 -123 -16 -175 -21 -62 -6 -63 -5 -63 19 0 30 9 33 110 42 41 3 76
8 78 10 6 6 67 -6 77 -16z m-275 -36 c0 -25 -4 -28 -33 -29 -17 -1 -80 -5
-138 -9 -91 -6 -107 -5 -112 8 -10 26 18 38 95 44 40 3 74 6 75 7 1 1 27 3 57
4 55 2 56 2 56 -25z m-302 -20 c-3 -29 -8 -30 -97 -33 -77 -3 -80 -2 -76 18 2
9 4 20 4 23 1 3 25 6 53 8 29 1 53 3 54 4 2 1 17 3 34 4 28 2 31 0 28 -24z
m860 -54 c51 -77 59 -109 29 -109 -12 0 -74 83 -111 148 -7 12 9 42 23 42 3 0
30 -37 59 -81z"/>
<path d="M5306 7677 c3 -10 9 -15 12 -12 3 3 0 11 -7 18 -10 9 -11 8 -5 -6z"/>
<path d="M2755 7615 c-22 -7 -80 -25 -130 -40 -49 -15 -96 -34 -103 -43 -9
-12 -12 -33 -8 -67 21 -184 21 -188 -18 -254 -20 -34 -37 -74 -38 -90 -2 -28
25 -81 41 -81 4 0 3 -28 -4 -63 -15 -80 -13 -164 6 -199 11 -21 139 -118 155
-118 2 0 41 -28 86 -63 46 -34 110 -81 143 -103 33 -23 94 -64 135 -93 100
-70 219 -148 305 -199 90 -54 197 -130 257 -184 26 -23 60 -49 75 -58 15 -8
36 -25 46 -38 10 -12 22 -20 27 -17 4 3 10 -1 13 -9 3 -8 30 -26 59 -40 62
-31 150 -86 176 -109 10 -9 22 -17 26 -17 4 0 17 -11 30 -25 25 -27 47 -35 26
-10 -14 17 -3 20 20 5 17 -11 19 -9 -45 -45 -27 -15 -99 -62 -160 -103 -60
-42 -180 -123 -265 -180 -135 -92 -290 -209 -355 -269 -11 -10 -45 -38 -75
-63 -30 -25 -64 -53 -75 -63 -11 -11 -60 -38 -110 -62 -49 -24 -137 -70 -195
-101 -58 -32 -139 -71 -180 -88 -142 -59 -176 -84 -399 -306 -134 -133 -149
-155 -218 -310 -56 -124 -68 -165 -78 -250 -3 -30 -9 -75 -12 -100 -7 -45 -7
-78 -3 -205 1 -38 2 -104 1 -145 -1 -41 1 -93 3 -115 13 -122 18 -151 32 -184
9 -20 21 -47 27 -61 5 -14 11 -27 12 -30 14 -54 82 -173 129 -227 82 -94 181
-185 190 -175 3 3 6 0 6 -6 0 -15 71 -81 86 -82 7 0 14 -7 18 -15 3 -8 10 -15
15 -15 6 0 21 -11 35 -23 14 -13 64 -44 111 -68 47 -24 85 -46 85 -49 0 -3
-15 -15 -33 -27 -290 -194 -342 -233 -467 -349 -36 -34 -91 -83 -122 -108
-109 -88 -182 -225 -266 -495 -31 -101 -36 -129 -36 -221 -1 -58 3 -125 7
-150 5 -25 10 -58 12 -75 14 -94 24 -150 40 -220 7 -33 16 -94 20 -135 10
-113 55 -210 123 -266 56 -46 74 -50 133 -34 31 9 39 18 62 71 24 55 26 69 22
162 -2 56 -7 116 -10 132 -25 134 -25 135 -5 155 26 26 32 26 144 -15 53 -19
109 -35 124 -35 30 0 30 0 116 112 32 43 66 80 75 82 9 3 48 8 86 11 39 3 95
8 125 11 30 3 87 7 125 9 39 2 79 6 90 8 11 3 45 8 75 12 77 10 79 11 138 34
30 12 70 24 89 27 20 3 45 8 57 10 11 2 50 9 86 14 100 16 104 17 123 49 22
38 22 52 -3 79 -18 19 -29 21 -78 17 -148 -12 -207 -17 -213 -21 -3 -1 -30 -6
-60 -9 -90 -10 -157 -23 -187 -39 -45 -23 -113 -32 -202 -25 -14 1 -65 -2
-115 -6 -49 -4 -101 -8 -114 -9 -20 -1 -34 15 -85 99 l-62 100 -42 0 c-23 0
-42 1 -42 2 0 1 24 20 54 42 30 22 67 52 82 66 21 20 34 25 54 20 71 -19 82
-12 124 78 21 47 45 82 68 99 l34 26 180 -3 c98 -2 224 -6 279 -10 224 -14
242 -14 321 16 15 5 26 2 36 -11 19 -22 64 -16 78 10 12 23 10 93 -3 102 -18
11 13 38 45 38 18 0 49 -15 83 -40 30 -22 58 -40 62 -40 4 0 -18 18 -50 41
-31 22 -57 42 -57 44 0 6 94 34 134 40 22 3 42 8 45 10 2 3 13 -3 23 -12 18
-16 18 -16 12 0 -5 13 0 17 17 18 72 2 97 20 93 64 -6 56 5 50 -109 55 -52 2
-177 -9 -184 -16 -2 -2 -10 1 -17 6 -6 6 -33 11 -59 12 -30 0 -42 4 -34 9 8 5
10 9 5 9 -5 0 -4 6 2 13 5 6 8 24 7 39 -2 15 2 29 9 31 22 9 7 63 -20 76 -30
13 -67 15 -60 2 3 -4 -6 -21 -19 -37 -14 -16 -23 -34 -21 -41 3 -7 -1 -10 -10
-6 -19 7 -18 -6 4 -30 9 -11 11 -17 5 -13 -12 6 -19 -19 -14 -47 1 -5 -3 -6
-9 -2 -5 3 -19 -10 -31 -29 -15 -26 -28 -36 -47 -37 -109 -5 -138 -10 -180
-31 -37 -18 -48 -29 -50 -50 -2 -16 -6 -28 -10 -28 -65 -4 -181 -1 -194 5 -14
6 -3 19 60 67 42 33 96 71 119 84 41 25 42 25 70 7 15 -10 37 -26 47 -35 11
-10 25 -18 30 -18 14 0 -43 47 -66 55 -29 10 -21 30 18 49 36 17 37 16 60 -5
13 -12 24 -19 24 -15 0 4 -9 15 -21 24 -20 17 -18 18 58 57 43 22 80 43 81 48
2 4 8 5 13 1 5 -3 2 -12 -6 -21 -11 -10 -14 -25 -10 -44 4 -18 3 -29 -4 -29
-7 0 -9 -11 -7 -26 7 -35 12 -39 31 -24 20 17 8 34 -13 19 -10 -6 -5 0 10 14
16 15 24 29 18 32 -13 8 -10 83 5 95 5 4 16 10 24 12 7 2 24 13 38 24 31 29
60 35 74 18 6 -8 16 -14 22 -14 6 0 1 7 -12 16 l-24 17 24 13 c32 18 133 17
168 -1 16 -8 31 -11 35 -8 3 4 6 2 6 -4 0 -6 35 -31 78 -57 77 -46 139 -88
219 -146 23 -16 45 -30 48 -30 4 0 26 -14 51 -31 25 -17 70 -41 102 -55 31
-13 65 -29 74 -34 27 -15 34 -12 12 5 -18 14 -17 15 11 9 17 -4 38 -11 48 -16
9 -5 17 -5 17 -1 0 4 -29 20 -65 34 -51 21 -65 24 -65 12 0 -8 -5 -11 -10 -8
-6 4 -8 10 -5 15 3 4 -6 15 -20 24 -14 9 -25 12 -25 6 0 -6 10 -15 23 -20 16
-6 17 -9 5 -9 -9 -1 -28 4 -42 11 -24 10 -24 12 -8 25 9 8 11 12 5 8 -7 -3
-13 -2 -13 4 0 5 -14 16 -31 25 -29 14 -30 14 -18 -1 12 -15 12 -16 -4 -10
-10 4 -20 7 -23 7 -2 0 -1 7 2 15 4 9 -4 19 -23 27 -15 7 -30 16 -33 20 -6 8
-235 159 -268 177 -12 6 -22 8 -22 2 0 -5 10 -12 23 -15 27 -7 137 -86 120
-86 -7 0 -14 4 -18 9 -3 5 -34 24 -70 42 -70 36 -87 63 -53 87 16 12 19 22 15
48 -3 19 -3 34 1 34 8 1 68 16 332 88 181 50 213 57 395 86 159 26 527 155
674 235 41 23 76 41 78 41 2 0 39 25 82 55 125 87 324 285 393 389 32 48 58
92 58 98 0 10 98 209 155 313 21 39 50 93 65 120 29 54 65 152 73 200 3 17 10
62 17 100 6 39 13 81 15 95 8 47 8 155 1 200 -9 48 -72 272 -108 380 -12 36
-36 88 -54 115 -33 51 -171 182 -187 177 -5 -1 -6 1 -3 6 9 15 -91 105 -106
96 -4 -3 -7 0 -6 8 2 7 -3 12 -10 10 -8 -1 -11 2 -8 7 3 4 -13 21 -37 37 -23
16 -45 33 -48 38 -4 5 -13 5 -20 1 -8 -5 -11 -5 -7 0 7 8 -14 35 -29 35 -4 1
-24 14 -43 30 -19 17 -40 30 -46 30 -7 0 -14 3 -16 8 -1 4 -25 25 -51 46 l-48
39 48 17 c26 10 87 32 135 49 144 52 308 171 496 361 146 147 170 192 237 440
9 36 21 76 26 90 24 71 27 150 15 325 -7 104 -35 215 -80 319 -7 17 -26 60
-41 96 -15 36 -33 79 -40 95 -34 77 -47 112 -51 135 -13 69 -27 99 -66 141
-42 45 -45 46 -90 42 -43 -5 -50 -9 -88 -60 -23 -30 -44 -66 -46 -81 -3 -15
-10 -45 -16 -67 -5 -22 -10 -56 -10 -75 1 -33 27 -176 38 -205 5 -13 -30 -31
-53 -27 -7 2 -55 23 -107 47 -52 25 -106 45 -119 45 -17 0 -37 -15 -65 -47
-51 -61 -77 -91 -109 -127 l-25 -28 -92 7 c-230 17 -595 23 -638 9 -19 -6 -48
-52 -48 -77 0 -8 8 -25 18 -37 17 -21 26 -22 242 -27 124 -3 230 -9 235 -13 6
-5 54 -11 108 -15 54 -4 106 -8 115 -10 9 -2 24 -4 33 -4 10 -1 35 -32 59 -73
24 -40 53 -87 66 -104 27 -36 27 -36 224 -4 30 5 71 11 90 14 54 8 61 21 80
163 15 115 18 126 32 135 25 15 36 8 61 -41 22 -41 24 -51 13 -67 -7 -11 -27
-55 -46 -99 -38 -90 -80 -159 -119 -193 -14 -13 -50 -46 -79 -74 l-52 -50 -69
36 c-38 20 -78 36 -89 36 -21 0 -60 -43 -116 -127 -25 -38 -36 -46 -56 -45
-19 1 -139 15 -155 18 -11 2 -56 6 -100 8 -44 3 -99 11 -121 19 -28 10 -92 16
-194 19 l-152 3 -23 -27 c-21 -25 -31 -28 -82 -28 -77 0 -98 -7 -114 -37 -31
-59 43 -103 199 -117 37 -4 92 -9 122 -13 113 -13 294 -11 317 4 22 13 70 11
152 -6 34 -6 33 -7 -50 -38 -108 -39 -144 -50 -199 -58 -25 -4 -54 -9 -65 -11
-10 -2 -37 -6 -60 -10 -70 -10 -186 -40 -260 -68 -54 -21 -61 -20 -101 10 -19
15 -34 22 -34 18 0 -5 14 -17 31 -27 18 -10 29 -20 27 -23 -3 -2 -57 -22 -119
-44 -110 -38 -117 -39 -217 -34 l-104 4 -62 46 c-58 44 -44 27 21 -26 30 -24
31 -28 26 -77 -3 -28 -11 -54 -18 -57 -7 -2 -28 8 -46 24 -19 15 -40 25 -48
22 -8 -3 -12 -1 -8 5 6 9 -37 48 -56 51 -4 1 -17 11 -29 22 -24 22 -23 21 -55
25 -30 3 -57 14 -50 21 3 3 15 1 26 -6 42 -22 20 0 -26 27 -27 15 -51 32 -55
38 -5 6 -8 6 -8 -2 0 -7 14 -20 31 -28 39 -21 30 -32 -10 -14 -29 13 -36 22
-32 43 3 15 -22 37 -35 32 -7 -3 -16 -1 -19 4 -4 6 -15 10 -26 10 -10 0 -19 5
-19 12 0 6 -3 9 -6 5 -3 -3 -27 15 -52 39 -26 25 -71 60 -101 78 -39 24 -49
35 -37 39 9 4 16 2 16 -3 0 -6 4 -10 9 -10 19 0 101 -62 96 -71 -4 -5 4 -13
17 -18 13 -5 40 -23 62 -40 21 -17 44 -31 50 -31 6 0 2 6 -9 12 -11 7 -25 16
-31 22 -6 6 -33 29 -59 51 -27 22 -63 52 -79 68 -17 15 -34 27 -39 27 -4 0
-20 11 -35 25 -15 14 -52 40 -82 57 -112 63 -199 129 -193 146 4 14 3 14 -5 3
-9 -12 -14 -12 -34 2 -12 9 -34 24 -48 33 l-25 16 25 -21 c14 -12 49 -38 77
-57 30 -20 50 -41 46 -47 -3 -6 -1 -7 5 -3 15 9 85 -38 88 -59 3 -19 -3 -19
-23 0 -8 8 -19 13 -24 10 -5 -4 -9 -1 -9 4 0 6 -7 11 -15 11 -8 0 -15 5 -15
10 0 6 -7 10 -15 10 -8 0 -15 5 -15 10 0 6 -7 10 -15 10 -9 0 -18 7 -21 15 -4
8 -10 12 -15 9 -5 -3 -9 -1 -9 4 0 4 -17 18 -38 30 -21 11 -46 30 -57 42 -10
11 -22 20 -26 20 -5 0 -28 14 -51 30 -24 17 -61 43 -83 57 -22 14 -58 41 -81
60 -23 18 -44 33 -48 33 -4 0 -21 13 -39 30 -18 16 -35 30 -38 30 -13 0 -142
90 -131 91 7 1 18 2 25 3 6 1 23 -5 37 -13 31 -18 129 -82 150 -98 85 -65 166
-124 220 -161 36 -24 65 -48 65 -53 0 -11 19 -13 22 -2 2 4 -25 26 -60 48 -34
22 -84 58 -112 80 -27 23 -72 56 -99 75 -27 19 -73 52 -102 73 -30 20 -58 37
-63 37 -4 0 -14 6 -20 14 -10 12 -5 25 22 65 19 27 37 48 40 45 3 -3 4 1 4 8
-1 7 9 45 22 85 l23 72 40 -22 c21 -12 106 -72 189 -134 82 -61 149 -108 149
-105 -1 8 -171 136 -283 212 -52 36 -84 65 -88 80 -6 21 -7 22 -8 5 -2 -42
-63 -192 -99 -245 -31 -45 -42 -55 -66 -55 -25 0 -31 6 -42 39 -8 21 -12 48
-9 60 3 11 7 45 10 73 4 53 19 94 33 92 29 -5 47 7 74 51 33 53 44 58 86 36
108 -56 175 -71 192 -45 3 5 51 -26 105 -67 55 -42 137 -101 183 -131 77 -53
82 -58 80 -89 -1 -18 -5 -31 -8 -29 -8 5 -40 -32 -40 -45 0 -14 -12 -12 -35 3
-49 34 -75 49 -75 44 0 -3 23 -19 50 -37 28 -18 50 -36 50 -42 0 -5 11 2 24
16 13 15 28 26 35 26 6 0 11 5 11 11 0 6 7 8 16 5 8 -3 22 0 30 8 21 21 17 32
-4 12 -18 -15 -19 -15 -28 6 -6 13 -8 52 -7 88 2 36 4 88 6 115 1 28 4 49 7
47 3 -2 19 2 35 8 17 6 49 13 73 14 l42 3 -6 -36 c-3 -22 -2 -31 3 -24 10 14
84 -125 89 -166 2 -20 -1 -22 -22 -18 -13 2 -24 1 -24 -3 0 -4 -9 -10 -20 -13
-25 -7 -40 -45 -29 -75 7 -18 3 -31 -17 -58 -15 -19 -29 -34 -33 -34 -3 0 -25
26 -48 57 -24 31 -43 52 -44 47 0 -5 -2 -19 -3 -32 -2 -13 1 -25 7 -29 7 -4
-46 -63 -58 -63 -3 0 -11 12 -19 28 -8 15 -15 22 -16 17 0 -6 7 -21 16 -33 12
-18 24 -22 54 -20 21 2 36 6 33 11 -2 4 1 7 7 7 6 0 8 5 5 10 -3 6 -1 10 5 10
7 0 9 -7 6 -16 -4 -12 -2 -15 9 -10 8 3 15 0 15 -6 0 -19 52 -59 67 -53 8 2
12 1 9 -4 -3 -5 1 -12 10 -15 8 -3 12 -2 9 4 -3 5 4 20 17 33 13 13 32 35 43
50 19 26 45 36 45 18 0 -5 10 -13 23 -16 12 -4 45 -24 72 -44 56 -42 75 -54
75 -49 0 7 -128 98 -137 98 -6 0 -17 8 -26 18 -15 17 -15 19 4 35 23 20 41 13
119 -44 67 -50 110 -79 116 -79 3 0 12 -6 19 -12 8 -7 20 -17 27 -23 7 -5 34
-27 60 -47 25 -21 51 -38 57 -38 6 0 11 -4 11 -8 0 -11 132 -102 148 -102 6 0
12 -3 12 -7 1 -5 3 -25 6 -46 9 -62 -10 -72 -131 -71 -60 0 -109 5 -123 12
-18 10 -22 10 -20 0 2 -9 -11 -14 -37 -16 -55 -5 -78 -28 -71 -70 5 -31 3 -32
-12 -20 -15 12 -16 11 -4 -4 8 -10 20 -14 29 -11 10 4 14 2 9 -5 -3 -6 -1 -14
5 -18 7 -4 9 -3 6 3 -8 13 271 12 290 0 6 -4 14 -3 17 2 3 5 14 7 24 4 13 -3
18 -14 18 -38 -1 -18 -4 -31 -8 -28 -17 10 -11 -49 5 -59 9 -6 9 -8 0 -8 -20
0 -1 -41 24 -51 28 -10 57 1 67 27 4 9 14 14 24 12 12 -3 17 1 18 16 2 32 9
65 17 72 13 13 8 46 -5 38 -9 -5 -9 -2 1 9 18 23 54 21 76 -3 10 -11 22 -20
28 -20 5 0 -1 9 -14 19 -22 18 -23 20 -8 38 37 42 31 61 -36 104 -34 22 -44
38 -68 103 -18 47 -32 74 -39 70 -7 -4 -8 -2 -4 5 11 17 -11 39 -39 39 -31 0
-55 -32 -49 -64 2 -13 0 -24 -6 -24 -10 0 -59 28 -70 40 -3 3 -18 14 -33 23
-16 10 -36 25 -45 33 -29 26 -193 150 -224 169 -9 6 -43 28 -75 50 l-58 40 45
6 c25 4 59 10 75 12 43 8 121 17 190 22 33 3 80 7 105 10 25 2 83 7 130 10
106 8 160 14 183 21 61 19 27 119 -37 108 -11 -1 -74 -5 -140 -9 -67 -3 -128
-7 -136 -10 -8 -2 -55 -6 -105 -10 -49 -3 -117 -8 -150 -11 -47 -4 -70 -1
-105 15 -50 22 -49 21 -109 139 -49 94 -65 107 -119 93 -20 -5 -55 -12 -77
-15 -60 -7 -95 -23 -96 -43 -1 -10 -3 -36 -4 -58 -1 -22 -3 -44 -4 -49 0 -4
-17 4 -37 19 -19 15 -38 25 -40 22 -3 -3 15 -19 39 -37 36 -25 43 -36 39 -55
-5 -28 -2 -29 -87 29 -74 51 -86 62 -77 71 4 5 2 5 -4 2 -10 -6 -95 48 -102
65 -2 4 -21 18 -43 30 -37 21 -51 50 -29 63 10 6 56 -22 100 -62 14 -13 28
-23 32 -23 5 0 15 -15 23 -32 9 -20 12 -23 9 -9 -6 23 -5 23 40 -8 25 -18 46
-28 46 -23 0 4 -29 27 -64 51 -35 23 -75 51 -88 62 -12 12 -35 28 -50 37 -16
9 -28 21 -28 26 0 16 73 135 86 140 7 3 22 -11 33 -30 11 -19 24 -34 28 -35 4
0 15 -2 24 -4 91 -17 207 -20 269 -6 25 5 59 12 75 15 122 22 138 27 181 63
65 52 74 69 62 104 -6 17 -19 31 -31 34 -71 15 -220 21 -267 11 -83 -19 -143
-26 -160 -21 -11 4 -30 8 -42 10 -13 2 -35 6 -49 9 -15 2 -52 7 -83 11 -54 7
-59 10 -144 96 -53 54 -96 89 -108 88 -10 0 -37 -7 -59 -14z m197 -225 l-29
-43 29 -26 30 -27 -59 -97 c-67 -113 -51 -109 -200 -46 -91 39 -128 44 -118
17 6 -18 -51 -108 -69 -108 -8 0 -24 8 -36 18 l-22 18 26 51 c25 51 46 75 46
54 0 -6 5 -11 10 -11 7 0 7 7 -1 21 -7 14 -7 25 -1 31 15 15 48 1 60 -25 7
-13 11 -16 11 -7 1 21 -10 34 -40 47 -14 6 -26 17 -26 25 0 7 -4 42 -8 78 -16
141 -14 159 20 167 6 1 62 17 125 37 l115 34 83 -83 83 -83 -29 -42z m3180 94
c0 -18 1 -40 2 -46 0 -7 15 -54 33 -105 l32 -92 -37 -10 c-20 -6 -40 -7 -44
-3 -11 12 -58 163 -65 210 -3 23 -9 42 -13 42 -4 0 -5 -15 -1 -33 7 -27 2 -40
-26 -81 -18 -26 -33 -44 -33 -40 0 5 -4 26 -9 46 -8 33 -5 43 23 81 17 24 37
42 44 40 6 -3 12 2 12 9 0 9 14 14 40 15 39 2 40 1 42 -33z m47 -69 c12 -30
12 -30 -7 -10 -10 12 -22 34 -26 50 -7 28 -6 28 6 10 8 -11 20 -33 27 -50z
m21 0 c0 -5 -5 -3 -10 5 -5 8 -10 20 -10 25 0 6 5 3 10 -5 5 -8 10 -19 10 -25z
m-2635 4 c22 -1 24 -3 10 -6 -34 -8 -38 -20 -5 -15 16 2 30 2 30 -2 0 -10 -46
-37 -71 -41 -13 -3 -35 -7 -49 -10 -124 -26 -208 -35 -263 -29 -34 3 -68 7
-74 7 -37 1 19 45 76 59 62 15 68 16 107 23 110 19 132 21 169 19 22 -2 54 -4
70 -5z m-457 -16 c23 -3 42 -9 42 -14 0 -4 -17 -22 -37 -39 -35 -29 -42 -31
-93 -25 -30 4 -58 9 -62 11 -13 8 -9 34 10 60 18 26 13 25 140 7z m572 -13 c0
-13 -52 -60 -67 -60 -20 0 -15 22 10 47 23 22 57 31 57 13z m2394 -81 c32 -98
32 -104 2 -154 l-24 -39 -15 37 c-9 20 -24 61 -33 91 l-17 54 27 46 c15 25 28
46 30 46 2 0 16 -36 30 -81z m119 29 c10 -16 15 -28 13 -28 -11 0 -36 33 -36
47 0 9 1 14 3 12 2 -2 11 -16 20 -31z m-225 -15 c1 -19 -5 -32 -17 -40 -18
-11 -19 -10 -11 18 10 33 10 34 10 50 0 23 16 -1 18 -28z m252 17 c0 -5 -2
-10 -4 -10 -3 0 -8 5 -11 10 -3 6 -1 10 4 10 6 0 11 -4 11 -10z m-2634 -21 c9
-15 -16 -38 -47 -44 -13 -3 -35 -7 -49 -10 -14 -3 -36 -7 -50 -10 -58 -12 -97
-18 -130 -19 -28 -1 -35 3 -35 18 0 20 25 31 95 42 19 3 62 11 95 19 76 17
112 18 121 4z m-342 -35 c8 -3 13 -11 12 -17 -3 -19 -17 -38 -24 -33 -4 2 -36
7 -72 11 -77 8 -80 10 -80 37 0 19 4 20 75 14 41 -4 81 -9 89 -12z m2720 -51
c-8 -60 -11 -63 -22 -22 -7 26 -6 38 6 52 22 25 23 22 16 -30z m256 17 c6 -11
8 -20 6 -20 -3 0 -10 9 -16 20 -6 11 -8 20 -6 20 3 0 10 -9 16 -20z m-229 -74
c-15 -17 -16 -17 -19 -1 -2 9 -1 33 3 53 l8 37 12 -35 c11 -30 10 -38 -4 -54z
m268 50 c-3 -3 -11 5 -18 17 -13 21 -12 21 5 5 10 -10 16 -20 13 -22z m-40
-45 c13 -41 7 -49 -38 -53 -31 -3 -34 0 -46 39 l-12 42 36 9 c42 10 44 9 60
-37z m-109 -119 l-23 -47 -14 43 c-14 41 -14 44 13 90 l28 47 10 -43 c8 -37 6
-51 -14 -90z m174 59 l21 -24 -26 17 c-14 9 -31 28 -37 42 -17 36 -15 42 5 14
9 -14 26 -36 37 -49z m7 27 c16 -29 2 -21 -22 15 -17 23 -18 28 -6 18 10 -8
23 -23 28 -33z m-286 1 c-3 -5 1 -6 9 -3 16 6 24 -23 25 -96 0 -33 -2 -40 -8
-25 -5 11 -7 23 -5 26 2 4 -5 9 -15 12 -26 6 -47 71 -29 91 14 15 32 11 23 -5z
m238 -131 c0 -43 -2 -80 -4 -82 -3 -3 -24 -9 -47 -14 -39 -9 -42 -9 -37 9 8
25 8 85 1 135 -7 42 -7 42 31 51 50 12 56 1 56 -99z m50 21 c16 -28 31 -49 34
-45 3 3 -6 24 -21 47 -32 48 -30 59 6 26 25 -24 34 -77 13 -84 -19 -6 -65 42
-71 75 -9 47 7 39 39 -19z m-523 -1 c41 -19 89 -41 107 -48 28 -13 31 -18 26
-45 -3 -16 -11 -36 -17 -44 -8 -11 -8 -13 1 -7 7 4 23 1 35 -6 13 -7 27 -11
31 -10 5 1 6 -5 3 -15 -2 -10 -7 -40 -11 -68 -3 -27 -8 -59 -11 -70 -5 -20
-12 -70 -13 -93 -1 -17 -34 -28 -102 -36 -31 -4 -67 -9 -80 -11 -13 -3 -41 -7
-63 -11 -22 -3 -44 -7 -47 -10 -6 -3 -29 30 -114 166 l-22 35 30 28 c16 15 37
27 46 28 11 0 9 3 -6 9 -23 9 -30 25 -15 32 8 4 121 134 141 163 17 25 -26
-20 -98 -103 -51 -59 -70 -70 -78 -45 -2 6 26 46 63 89 73 86 103 116 113 110
3 -2 40 -19 81 -38z m376 2 c4 -30 -24 -110 -38 -110 -16 0 -12 68 6 107 22
47 27 48 32 3z m-76 -65 c-5 -14 -11 -25 -13 -25 -1 0 -3 26 -4 58 l-1 57 14
-32 c10 -23 11 -40 4 -58z m-2533 -11 c40 -79 46 -114 19 -114 -10 0 -96 158
-102 188 -1 7 7 12 19 11 17 0 31 -19 64 -85z m2487 25 c12 -59 8 -66 -40 -85
-41 -15 -47 -16 -61 -2 -26 27 -8 70 40 95 54 28 53 28 61 -8z m324 -81 c-1
-21 -3 -38 -4 -38 -2 0 -19 28 -38 63 -20 34 -36 58 -36 54 0 -5 16 -38 35
-73 40 -73 40 -70 19 -120 l-16 -39 -14 30 -13 30 6 -29 c5 -23 3 -27 -8 -22
-8 4 -5 0 5 -8 19 -15 18 -19 -29 -123 -58 -132 -104 -210 -142 -242 -15 -13
-39 -34 -53 -47 l-25 -23 -50 45 -50 44 62 55 c53 48 70 72 117 168 111 228
130 273 133 312 2 22 9 42 15 46 6 4 28 -5 49 -20 34 -23 38 -30 37 -63z
m-266 12 c5 -34 -7 -41 -17 -10 -5 17 0 40 9 40 2 0 6 -13 8 -30z m61 10 c-5
-19 -23 -39 -23 -25 0 9 20 45 24 45 2 0 2 -9 -1 -20z m69 -58 c-13 -33 -24
-44 -51 -52 -19 -5 -36 -8 -38 -6 -3 3 25 77 33 85 4 4 68 19 71 16 2 -1 -5
-20 -15 -43z m-1226 26 c3 -4 13 -4 22 -1 11 5 13 3 7 -8 -8 -12 -6 -12 8 0
13 11 40 12 125 7 59 -4 111 -11 115 -16 5 -4 6 -17 3 -28 -7 -20 -23 -21
-171 -7 -72 8 -79 8 -226 0 -111 -6 -117 -5 -122 14 -8 32 13 40 114 43 114 4
117 4 125 -4z m470 -22 c25 -2 50 -12 62 -24 l21 -21 -23 -28 c-24 -27 -44
-29 -166 -18 -14 1 -38 3 -53 4 -27 1 -28 2 -13 23 9 12 16 34 16 49 0 28 3
28 156 15z m937 -81 c7 -30 7 -30 -13 5 -10 19 -19 49 -19 65 l0 30 13 -35 c7
-19 16 -48 19 -65z m-2819 39 c24 -9 19 -21 -9 -26 -28 -6 -27 -6 -19 16 7 18
7 18 28 10z m752 -9 c4 -9 2 -21 -3 -26 -11 -11 -92 -20 -203 -23 -41 0 -79
-4 -85 -7 -9 -5 -58 -9 -150 -12 -34 -2 -40 1 -43 21 -2 12 0 22 5 23 4 0 17
2 28 5 11 2 63 6 115 9 52 4 127 9 165 13 145 14 165 14 171 -3z m2093 -45
l-1 -25 -8 25 c-4 14 -8 32 -9 40 -1 13 0 13 9 0 5 -8 9 -26 9 -40z m-1431 33
c-10 -2 -26 -2 -35 0 -10 3 -2 5 17 5 19 0 27 -2 18 -5z m49 1 c-3 -3 -12 -4
-19 -1 -8 3 -5 6 6 6 11 1 17 -2 13 -5z m1143 -8 c0 -15 -93 -196 -101 -196
-5 0 -8 -4 -4 -9 3 -5 -5 -27 -17 -48 -19 -31 -23 -34 -26 -18 -2 11 -8 25
-13 32 -7 7 -1 15 18 22 20 8 22 10 6 7 -13 -2 -23 -3 -23 -2 0 1 20 46 45
101 33 74 51 102 67 107 27 7 48 9 48 4z m176 -32 c3 -16 9 -47 14 -69 15 -62
12 -73 -10 -40 -28 43 -25 26 6 -30 25 -43 26 -49 14 -86 -15 -45 -24 -38 -34
26 -8 55 -24 113 -25 95 -1 -8 6 -52 15 -97 14 -70 15 -90 4 -128 -7 -25 -15
-45 -18 -45 -9 0 -61 62 -81 95 -17 29 -17 35 -3 69 11 27 19 36 31 31 12 -5
13 -3 4 5 -8 9 -6 24 10 62 14 33 23 45 28 36 6 -9 11 -10 19 -2 8 8 7 14 -4
23 -12 10 -12 17 2 52 17 44 21 44 28 3z m-2524 1 c3 -14 0 -25 -6 -26 -6 0
-19 -2 -28 -4 -30 -6 -97 -14 -162 -21 -66 -7 -89 4 -67 30 11 14 40 19 151
32 30 4 56 7 57 8 1 1 13 2 26 4 19 1 26 -4 29 -23z m2582 -110 c-9 -36 -21
-31 -27 13 -4 20 -9 53 -12 72 -6 35 -6 34 20 -12 17 -33 23 -56 19 -73z
m-2878 73 c1 -10 -3 -18 -9 -19 -7 0 -24 -2 -39 -4 -27 -4 -54 17 -44 34 3 5
25 8 47 7 32 -1 43 -5 45 -18z m-28 -78 c-7 -11 -16 -20 -20 -20 -5 0 -8 -6
-9 -12 0 -21 -55 -59 -74 -52 -20 8 -18 12 24 63 25 31 41 41 62 41 27 0 28
-2 17 -20z m2913 -162 c-1 -56 -7 -108 -13 -115 -5 -7 -12 -27 -13 -45 -2 -18
-8 -44 -13 -58 -15 -38 -20 172 -6 219 10 29 12 31 13 12 2 -37 15 -15 17 27
2 64 4 76 10 69 4 -3 6 -52 5 -109z m-406 22 c-3 -6 -15 -10 -26 -10 -19 0
-19 1 -3 26 15 22 19 23 26 10 5 -9 6 -21 3 -26z m238 -58 c61 -86 61 -86 29
-142 l-29 -51 -27 41 c-14 22 -29 40 -32 40 -2 0 7 -17 21 -37 14 -21 25 -43
25 -49 0 -6 -23 -33 -51 -59 l-52 -48 -19 24 -20 24 16 -27 c16 -27 15 -27
-32 -72 -94 -89 -119 -108 -236 -187 -65 -43 -116 -79 -112 -79 13 0 192 116
226 147 14 13 28 23 31 23 3 0 35 27 70 59 48 45 67 57 77 49 9 -8 11 -7 6 6
-5 13 8 31 47 66 29 28 55 48 57 46 2 -3 12 -37 23 -77 l19 -71 -52 -54 c-48
-50 -53 -53 -60 -34 -10 28 -16 25 -10 -5 3 -19 -5 -34 -40 -67 -78 -76 -151
-133 -258 -205 -91 -61 -119 -75 -175 -89 -5 -1 -84 -27 -175 -57 -91 -30
-189 -60 -217 -68 -29 -7 -53 -16 -53 -20 0 -3 43 7 96 22 53 16 100 27 104
24 5 -3 10 -1 12 4 3 10 248 91 275 91 19 0 182 103 253 160 72 58 73 58 67
11 -2 -23 -6 -43 -8 -45 -40 -38 -105 -84 -112 -79 -6 3 -7 1 -4 -4 14 -23
-271 -188 -290 -169 -3 3 12 22 33 43 22 21 45 47 53 58 8 11 -19 -12 -60 -52
-60 -58 -88 -77 -149 -101 -119 -46 -276 -89 -394 -107 -60 -10 -159 -32 -220
-50 -243 -71 -323 -93 -359 -100 -52 -8 -183 -79 -318 -171 -222 -151 -265
-180 -349 -234 -47 -30 -92 -60 -100 -67 -216 -174 -448 -349 -483 -363 -12
-5 -65 -25 -117 -44 -92 -34 -172 -66 -217 -88 -12 -6 -29 -8 -37 -5 -9 4 -15
1 -13 -4 2 -10 -141 -79 -162 -79 -4 0 -22 27 -41 60 -18 33 -35 58 -37 56 -2
-2 10 -27 27 -56 17 -29 29 -58 27 -65 -3 -6 -42 -22 -88 -34 -78 -21 -169
-63 -317 -146 -35 -20 -67 -33 -71 -30 -5 2 -14 -1 -20 -9 -6 -7 -30 -21 -53
-32 -23 -10 -56 -31 -72 -47 -17 -15 -35 -26 -41 -24 -5 2 -19 25 -29 50 l-20
47 24 25 c22 24 25 25 32 8 7 -15 8 -14 4 4 -3 18 5 27 41 48 25 13 50 22 56
18 5 -3 7 -2 4 4 -5 7 68 53 93 58 3 0 23 12 45 26 22 14 48 30 59 36 18 10
18 10 0 17 -10 4 -15 4 -11 0 9 -9 -72 -56 -84 -48 -5 3 -9 1 -9 -5 0 -11 -62
-51 -79 -51 -6 0 -16 10 -21 23 -8 21 -9 20 -9 -8 -1 -23 -10 -35 -38 -54 -29
-18 -35 -20 -29 -6 3 9 18 51 32 93 15 42 30 82 35 88 5 6 6 13 3 16 -6 7 49
48 64 48 5 0 -1 -28 -13 -62 -12 -35 -25 -79 -29 -98 -3 -19 11 13 32 72 32
93 42 110 73 131 32 22 37 23 48 8 11 -14 11 -14 7 0 -2 9 -1 20 2 26 8 11 96
58 152 79 l35 14 -32 -6 c-27 -4 -32 -2 -36 18 -4 21 -4 20 -6 -4 -1 -22 -10
-31 -48 -48 -25 -11 -49 -18 -52 -14 -8 8 -8 113 1 108 4 -2 8 5 10 17 4 26
84 74 94 57 5 -7 10 -4 15 9 5 13 33 29 86 48 43 16 141 59 218 98 153 75 262
120 275 112 5 -3 12 1 17 8 4 7 44 41 88 74 44 34 89 69 100 80 60 56 273 219
360 273 88 56 241 159 270 183 29 23 202 131 285 176 71 39 134 64 250 96 85
25 227 65 315 90 88 25 219 55 290 66 126 19 334 71 365 91 13 8 13 9 -1 5
-125 -38 -262 -70 -370 -87 -126 -19 -221 -43 -554 -140 -77 -22 -147 -39
-155 -38 -8 1 -35 -9 -60 -24 -25 -14 -86 -48 -135 -76 -50 -28 -154 -94 -230
-147 -77 -52 -166 -112 -198 -132 -113 -73 -213 -140 -233 -156 -10 -9 -73
-60 -139 -114 -66 -54 -148 -120 -182 -146 l-63 -48 0 43 c0 40 4 46 61 93 67
55 92 76 129 108 89 79 214 173 349 263 86 58 194 132 241 164 201 141 369
230 520 275 l45 14 -55 -51 c-30 -28 -46 -45 -35 -37 11 7 40 32 65 54 33 30
70 50 135 72 150 52 326 101 405 112 143 20 205 36 385 96 209 69 228 74 243
62 10 -8 12 -7 10 3 -2 8 19 28 46 44 68 43 192 137 251 191 28 24 52 45 55
45 3 0 29 -23 59 -51 52 -48 57 -49 73 -19 2 3 23 22 47 44 l43 38 19 -28 c10
-16 19 -25 19 -21 0 4 -7 19 -16 32 -15 22 -14 27 11 69 15 25 28 46 30 46 2
0 19 -22 38 -48z m-243 34 c0 -9 -104 -86 -116 -86 -23 0 -15 13 32 53 38 31
84 49 84 33z m348 -153 l1 -68 -16 47 c-9 27 -13 58 -9 73 11 44 23 19 24 -52z
m-503 12 c-28 -24 -60 -44 -72 -45 -20 0 -17 5 20 39 23 21 49 41 57 44 41 15
40 3 -5 -38z m-1650 5 c3 -16 15 -47 26 -69 26 -55 24 -66 -10 -66 -16 -1 -27
3 -24 8 6 10 -28 107 -37 102 -5 -3 -6 43 -1 53 0 1 10 2 20 2 13 0 21 -9 26
-30z m1535 -40 c0 -4 -7 -13 -15 -20 -15 -12 -36 -5 -92 30 -19 12 -24 12 -35
1 -7 -8 -8 -11 -2 -8 11 6 24 -40 24 -85 0 -22 -111 -92 -121 -76 -6 9 26 61
84 136 5 6 7 12 4 12 -3 0 -27 -29 -52 -65 -46 -64 -55 -73 -55 -57 0 11 118
174 136 188 11 9 27 5 69 -18 30 -16 55 -33 55 -38z m604 -54 c15 -57 15 -58
-12 -107 -15 -27 -30 -49 -33 -49 -3 0 -13 33 -23 74 l-17 73 28 45 c32 52 35
49 57 -36z m-681 35 c15 -8 27 -17 27 -21 0 -9 -50 -43 -55 -38 -7 9 -15 80
-8 76 4 -2 20 -10 36 -17z m117 -4 c0 -11 -82 -67 -106 -73 -25 -5 -21 0 25
35 46 35 81 51 81 38z m-853 -18 c101 -2 127 -13 94 -43 -15 -14 -38 -16 -147
-14 -100 2 -132 6 -141 18 -6 8 -9 19 -6 23 9 14 46 24 78 21 16 -1 72 -3 122
-5z m-762 -20 c-4 -5 -2 -9 4 -9 6 0 8 -7 5 -15 -10 -26 -24 -17 -24 16 0 18
4 28 10 24 6 -4 8 -11 5 -16z m951 -15 c60 -20 68 -27 60 -51 -6 -20 -7 -20
-69 0 -34 11 -63 20 -64 21 -5 4 10 46 16 46 4 0 30 -7 57 -16z m-1786 -5 c0
-5 5 -7 10 -4 6 3 10 2 10 -3 0 -6 12 -14 28 -20 15 -5 40 -21 56 -35 l28 -24
-26 0 c-14 0 -23 3 -20 8 3 5 -2 9 -11 9 -11 0 -15 5 -11 16 3 8 2 12 -3 9
-14 -8 -78 25 -78 41 0 8 4 14 9 14 4 0 8 -5 8 -11z m2028 -15 c24 -3 51 -7
60 -9 9 -2 22 -4 28 -4 6 -1 18 -17 27 -36 l17 -36 -28 -10 c-26 -11 -105 -13
-151 -4 -13 2 -49 7 -80 11 -65 7 -68 9 -53 27 6 7 13 28 14 46 l2 33 61 -6
c33 -3 79 -9 103 -12z m-653 -14 c4 -12 5 -24 2 -26 -2 -3 -42 -6 -88 -7 -75
-2 -84 0 -87 17 -6 27 8 31 92 34 68 2 75 1 81 -18z m926 -20 c-13 -11 -28
-20 -33 -20 -6 0 0 9 13 20 13 10 29 19 34 19 6 0 -1 -9 -14 -19z m-805 1 c3
6 40 9 81 8 67 -2 74 -4 57 -16 -10 -7 -25 -11 -33 -8 -27 10 -108 16 -86 6
16 -6 8 -9 -33 -12 -44 -3 -52 -1 -52 13 0 14 5 15 30 8 18 -5 32 -5 36 1z
m235 -16 l34 -14 -35 3 c-19 2 -45 4 -58 5 -27 1 -20 21 7 21 10 0 34 -7 52
-15z m519 -10 c0 -2 -10 -9 -22 -15 -22 -11 -22 -10 -4 4 21 17 26 19 26 11z
m-1633 -34 c-4 -27 -10 -27 -159 -22 -18 1 -25 31 -11 45 4 4 45 6 90 4 82 -2
83 -2 80 -27z m303 14 c26 -32 -7 -41 -142 -40 -133 1 -154 6 -139 34 9 15 27
18 139 20 110 2 131 0 142 -14z m107 2 c23 -15 3 -33 -35 -32 -25 0 -37 5 -37
15 0 23 46 33 72 17z m602 4 c10 -6 -1 -8 -30 -4 -24 3 -46 7 -48 9 -10 9 65
3 78 -5z m101 -11 c-37 -6 -63 -2 -56 9 3 4 24 5 48 2 l43 -5 -35 -6z m-292 3
c-10 -2 -28 -2 -40 0 -13 2 -5 4 17 4 22 1 32 -1 23 -4z m158 -8 c43 -4 86
-12 94 -17 10 -6 2 -8 -25 -4 -22 3 -69 8 -105 12 -36 3 -69 10 -74 15 -6 5
-1 7 11 5 11 -3 56 -7 99 -11z m-261 -5 c3 -6 -1 -7 -9 -4 -18 7 -21 14 -7 14
6 0 13 -4 16 -10z m90 -10 c-4 -7 -75 -1 -75 6 0 3 18 4 39 2 22 -1 38 -5 36
-8z m82 -6 c-3 -3 -12 -4 -19 -1 -8 3 -5 6 6 6 11 1 17 -2 13 -5z m111 -11
c-10 -2 -26 -2 -35 0 -10 3 -2 5 17 5 19 0 27 -2 18 -5z m-778 -48 c-6 -8 -9
-19 -5 -25 3 -5 1 -10 -4 -10 -15 0 -14 37 2 43 19 8 20 8 7 -8z m57 -65 c-26
-68 -34 -80 -54 -80 -29 0 -29 5 4 90 24 62 30 70 54 70 l27 0 -31 -80z m2041
7 c-1 -13 -17 -39 -36 -57 l-34 -35 32 58 c44 78 30 72 -18 -9 -24 -39 -42
-60 -45 -52 -3 7 -6 3 -6 -9 -1 -25 -58 -96 -71 -88 -5 3 -11 -1 -13 -7 -3 -7
-6 2 -6 20 -1 25 8 42 39 73 22 22 40 35 40 27 0 -10 3 -9 10 2 9 13 10 13 11
0 0 -8 5 1 11 20 10 35 65 93 80 84 4 -3 7 -15 6 -27z m-2534 -79 c-4 -6 -10
-5 -15 3 -14 22 -10 33 6 19 8 -7 12 -17 9 -22z m190 -109 c14 -11 26 -17 26
-13 0 4 9 -1 20 -11 11 -10 20 -23 19 -29 0 -6 -3 -5 -6 2 -3 7 -15 18 -27 23
-54 25 -90 48 -75 49 9 0 28 -9 43 -21z m311 -39 c3 -5 -1 -10 -10 -10 -9 0
-27 -7 -40 -16 -24 -16 -25 -16 -25 10 0 23 4 26 34 26 19 0 38 -4 41 -10z
m-190 -50 c3 -5 1 -10 -4 -10 -6 0 -11 5 -11 10 0 6 2 10 4 10 3 0 8 -4 11
-10z m1454 -328 c9 -10 61 -52 115 -93 55 -41 119 -89 143 -107 42 -32 102
-91 103 -102 0 -3 -18 -16 -40 -30 -22 -14 -40 -28 -40 -32 0 -4 20 7 45 24
l45 32 29 -28 c17 -16 31 -23 35 -17 4 5 -10 21 -31 35 -59 41 -29 32 35 -10
2 -1 5 -10 6 -19 1 -9 9 -21 17 -26 8 -5 9 -9 3 -9 -5 0 -16 6 -23 13 -11 10
-13 9 -9 -3 3 -9 -12 -27 -41 -47 l-46 -31 -35 31 -35 32 28 -31 c15 -16 27
-34 27 -40 0 -13 -70 -110 -71 -98 0 5 -2 16 -4 24 -2 8 -8 44 -14 79 -13 78
-30 98 -90 107 -54 8 -53 8 -156 29 -44 9 -84 19 -89 22 -5 4 -6 1 -2 -5 4 -7
1 -12 -8 -12 -13 0 -56 -92 -56 -120 0 -28 -42 3 -217 158 -14 12 -28 22 -30
22 -9 0 33 -49 42 -50 6 0 35 -23 65 -51 30 -27 70 -60 87 -72 53 -36 52 -63
-2 -67 -51 -4 -60 -1 -92 28 -68 60 -200 162 -210 162 -4 0 -14 6 -22 14 -9 7
-41 26 -71 42 -30 16 -70 40 -87 53 l-33 24 53 19 c28 10 60 17 70 14 9 -2 17
0 17 5 0 5 5 9 11 9 6 0 9 -6 6 -14 -9 -22 27 -61 59 -64 15 -1 43 -14 63 -28
l36 -25 -32 29 c-18 15 -33 31 -33 35 0 3 19 17 42 31 l41 25 28 -30 c19 -20
33 -27 45 -22 13 5 15 3 9 -8 -11 -18 39 34 58 61 11 16 13 30 7 51 -8 27 -6
31 23 43 23 9 34 10 39 2 5 -7 8 -6 8 3 0 8 7 11 20 8 10 -3 18 -2 17 2 -1 3
3 8 8 10 93 36 112 38 134 13z m-269 -118 c0 -22 -23 -47 -52 -57 -12 -4 -19
1 -24 16 -4 12 -11 25 -16 28 -10 6 18 39 47 55 23 13 44 -7 45 -42z m-136 32
c-6 -14 -54 -40 -54 -28 0 10 20 39 20 29 0 -4 8 -3 18 2 22 13 22 13 16 -3z
m-84 -45 c0 -29 -4 -40 -19 -44 -25 -6 -36 3 -36 33 0 22 23 46 48 49 4 1 7
-16 7 -38z m-206 -76 c16 -14 54 -37 85 -52 31 -15 58 -30 61 -34 3 -3 15 -12
28 -18 25 -13 53 -34 84 -63 10 -10 21 -18 26 -18 4 0 34 -24 66 -54 l60 -53
-90 -3 c-104 -4 -126 -3 -214 4 -91 7 -281 9 -307 3 -16 -4 -23 0 -27 19 -10
40 -99 77 -233 98 -29 5 -20 16 39 53 79 50 124 74 152 79 11 2 59 17 106 33
108 36 128 37 164 6z m-269 -15 c-27 -12 -43 -12 -25 0 8 5 22 9 30 9 10 0 8
-3 -5 -9z m-174 -90 c-18 -17 -35 -30 -37 -30 -11 0 23 40 41 49 33 16 32 12
-4 -19z m1077 -33 c9 -11 10 -36 2 -57 -1 -3 -2 -8 -1 -12 0 -5 -3 -8 -8 -8
-5 0 -12 -16 -15 -35 -8 -40 -15 -46 -43 -39 l-21 6 25 71 c33 96 38 102 61
74z m77 -7 c41 -9 57 -12 132 -25 48 -8 50 -12 78 -156 l16 -87 -25 -27 c-18
-19 -25 -37 -23 -58 2 -30 0 -32 -108 -78 -60 -26 -113 -48 -116 -48 -3 -1
-20 25 -36 57 -17 31 -39 72 -49 90 -17 28 -17 34 -4 42 8 5 17 10 20 10 7 0
90 -147 90 -160 0 -5 4 -10 9 -10 5 0 11 18 13 40 3 37 -5 55 -14 28 -2 -6
-15 8 -28 33 -12 24 -29 55 -36 69 -8 13 -11 37 -9 53 3 15 1 36 -5 47 -8 14
-4 34 14 82 l23 63 43 -84 c32 -64 41 -92 37 -115 -16 -90 -16 -99 -2 -51 21
72 19 82 -25 169 -23 42 -45 88 -50 102 -11 27 -7 28 55 14z m-1270 -30 c-21
-24 -223 -168 -298 -214 -59 -36 -142 -92 -172 -117 -11 -9 -56 -47 -100 -84
-44 -37 -93 -73 -110 -81 -16 -7 -26 -13 -22 -14 11 0 -89 -80 -100 -80 -4 0
-24 -14 -43 -30 -30 -26 -60 -39 -60 -26 0 2 47 38 105 80 58 43 134 101 169
129 35 29 76 61 91 71 14 11 38 30 53 43 30 26 72 55 242 166 63 41 147 98
185 125 79 57 86 60 60 32z m1760 -61 c4 -5 11 -6 17 -3 6 4 8 2 4 -4 -3 -6
-2 -13 3 -16 8 -5 61 -93 61 -101 0 -2 -21 -15 -47 -30 -43 -26 -72 -53 -122
-115 -19 -24 -20 -24 -21 -4 0 12 -10 25 -25 32 -17 8 -23 16 -18 25 33 51 67
97 73 97 4 0 13 -13 20 -30 7 -16 17 -30 22 -30 15 0 -32 70 -79 119 -24 24
-42 46 -40 47 2 2 23 17 47 33 l44 29 28 -19 c15 -11 30 -24 33 -30z m-1620
25 c22 -3 48 -10 58 -16 26 -14 17 -43 -13 -42 -30 0 -105 10 -142 18 -16 3
-40 9 -55 12 -38 8 -8 26 32 19 26 -4 27 -4 8 5 -54 23 -18 24 112 4z m1636
-1 c13 -17 13 -17 -6 -3 -11 8 -22 16 -24 17 -2 2 0 3 6 3 6 0 17 -8 24 -17z
m34 -43 c3 -5 1 -10 -4 -10 -6 0 -11 5 -11 10 0 6 2 10 4 10 3 0 8 -4 11 -10z
m-1499 -32 c13 -21 -14 -30 -45 -14 -30 16 -37 27 -25 39 7 7 62 -12 70 -25z
m-1527 5 c-63 -81 -136 -142 -189 -158 -19 -5 -10 8 40 60 52 53 113 97 159
114 2 0 -3 -7 -10 -16z m46 -60 c-1 -4 -109 -42 -112 -39 -2 2 20 29 49 61
l53 57 5 -38 c3 -22 6 -40 5 -41z m2808 38 l39 -40 -39 -55 c-21 -30 -40 -55
-43 -56 -3 0 -20 9 -37 20 -43 26 -44 64 -3 115 17 21 30 42 30 46 0 17 16 8
53 -30z m-1589 14 c8 -8 22 -15 32 -15 10 0 15 -3 11 -6 -11 -12 -87 7 -87 22
0 18 25 18 44 -1z m1837 -31 c9 -16 14 -32 12 -36 -2 -5 2 -8 9 -8 9 0 9 -3
-2 -10 -13 -8 -12 -10 3 -10 21 0 43 -48 28 -63 -7 -7 -19 -7 -37 2 -23 10
-25 15 -20 46 5 25 3 35 -6 35 -7 0 -21 14 -30 30 -10 18 -13 30 -6 30 7 0 6
5 -2 15 -11 13 -10 14 11 7 13 -5 31 -22 40 -38z m-1931 10 c19 -4 42 -8 50
-9 8 -2 40 -7 70 -11 30 -4 58 -9 63 -10 4 -1 22 -2 40 -3 26 -1 33 -6 34 -22
1 -11 7 -26 13 -34 9 -11 94 -37 170 -52 21 -4 160 -4 360 -2 19 0 71 1 115 0
44 0 110 2 146 4 74 5 65 12 127 -109 53 -101 68 -110 138 -79 22 9 41 17 44
18 3 1 12 5 21 9 12 5 29 -5 60 -36 24 -24 62 -59 85 -79 51 -45 70 -73 129
-184 26 -49 54 -102 62 -117 16 -31 27 -138 16 -155 -4 -6 -43 -14 -86 -18
l-77 -7 0 119 c0 102 -3 122 -17 135 -20 16 -247 105 -292 114 -33 7 -49 -7
-131 -114 -47 -62 -58 -72 -80 -68 -14 3 -72 16 -130 29 -75 17 -112 22 -130
15 -15 -6 -41 -5 -70 1 -25 5 -61 12 -80 15 -19 4 -46 8 -60 11 -13 3 -40 7
-60 10 -20 3 -47 8 -60 10 -14 3 -45 8 -70 11 -25 3 -47 7 -50 9 -3 2 -30 6
-60 10 -30 4 -58 9 -62 12 -5 2 -37 7 -73 10 -80 7 -115 -11 -115 -57 0 -51 1
-52 380 -110 74 -11 153 -23 175 -27 22 -3 47 -7 55 -8 8 -1 35 -6 60 -10 25
-4 52 -14 61 -21 17 -15 103 -41 229 -69 l75 -16 60 -81 c70 -94 98 -118 128
-112 43 8 162 18 192 15 17 -1 58 -2 91 -3 l62 0 -55 -81 c-48 -72 -68 -91
-171 -165 -64 -46 -134 -92 -155 -103 l-37 -20 5 38 c2 21 8 79 11 129 6 86 5
93 -15 110 -27 24 -209 84 -230 76 -9 -3 -54 -45 -101 -93 l-86 -87 -87 -5
c-49 -3 -94 -10 -100 -15 -7 -6 -28 -9 -47 -7 -19 2 -104 7 -188 11 -138 6
-154 5 -172 -11 -41 -37 -8 -104 52 -106 15 -1 31 -2 36 -3 12 -3 104 -16 147
-20 149 -16 199 -20 268 -20 l77 -1 40 -62 c21 -34 36 -64 32 -66 -33 -19
-363 -114 -422 -122 -163 -21 -207 -28 -305 -51 -60 -14 -162 -41 -225 -59
-121 -35 -258 -72 -300 -81 -61 -13 -403 -183 -519 -258 -49 -31 -70 -40 -78
-32 -43 40 -53 44 -53 20 0 -8 4 -13 9 -10 4 3 16 -3 26 -14 18 -20 17 -21
-23 -37 -23 -9 -42 -20 -42 -25 0 -5 -9 -4 -20 2 -16 8 -18 8 -14 -4 3 -9 -3
-17 -15 -21 -24 -7 -44 2 -35 16 3 5 0 16 -6 24 -10 12 -10 15 2 15 8 0 19 -5
26 -10 6 -6 -1 3 -16 19 -15 16 -28 39 -28 50 -2 38 -4 40 -25 51 -16 9 -28 9
-50 0 -23 -10 -35 -10 -59 0 -16 7 -30 16 -30 21 0 4 -8 10 -17 14 -10 3 -39
25 -65 48 -43 39 -45 44 -33 66 9 18 14 20 18 10 3 -8 6 -5 6 9 1 20 31 34 31
14 0 -10 60 -55 66 -49 2 2 -16 20 -40 39 l-45 35 18 34 18 34 141 -3 c84 -2
148 1 160 7 14 8 27 6 53 -8 47 -25 181 -39 434 -45 108 -2 157 13 168 54 15
57 -13 74 -147 89 -49 6 -99 17 -111 25 -28 19 -110 25 -535 40 -182 7 -154
-8 -211 110 -57 117 -69 126 -141 102 -54 -18 -183 -56 -190 -56 -3 0 -18 28
-33 63 -15 34 -33 75 -41 91 -21 43 -17 48 12 21 15 -14 37 -25 50 -25 12 0
34 -4 47 -9 13 -5 37 -12 53 -15 16 -2 38 -7 49 -10 90 -21 112 -26 127 -26
11 0 46 38 89 98 40 53 73 98 75 100 1 2 40 6 86 8 45 2 103 8 128 11 82 13
237 5 308 -16 82 -24 121 -29 338 -37 166 -7 172 -6 193 15 26 26 27 56 1 78
-28 24 -119 51 -197 58 -38 4 -79 8 -93 10 -14 2 -50 7 -80 10 -30 3 -88 13
-129 21 -123 25 -318 34 -476 20 -38 -3 -75 -2 -80 2 -6 4 -43 51 -83 104 -40
53 -78 98 -85 101 -7 2 20 14 58 26 80 25 215 80 230 93 19 16 25 7 25 -39 1
-83 7 -86 182 -98 l96 -6 25 33 c13 18 45 71 71 118 29 52 64 98 88 118 l41
33 124 -7 c137 -7 179 2 189 41 7 27 -9 61 -34 74 -9 5 -56 14 -103 21 -47 6
-91 15 -97 19 -8 5 2 18 30 39 24 17 59 45 78 62 114 101 251 193 326 220 17
6 37 21 43 33 19 33 72 65 101 61 14 -2 41 -7 60 -10z m240 2 c0 -2 -11 -6
-25 -8 -13 -3 -22 -1 -19 3 5 9 44 13 44 5z m-63 -12 c-3 -3 -12 -4 -19 -1 -8
3 -5 6 6 6 11 1 17 -2 13 -5z m562 -4 c7 -4 11 -16 9 -26 -3 -17 -12 -19 -73
-18 -39 1 -101 2 -140 3 -77 1 -101 11 -92 35 6 15 25 17 145 15 76 0 144 -4
151 -9z m440 -11 c21 -23 17 -43 -11 -66 -7 -6 -79 -14 -161 -18 l-147 -6 12
25 c8 19 20 26 42 28 l31 1 -31 4 c-21 3 -34 11 -37 23 -4 17 2 19 67 22 228
9 213 10 235 -13z m-761 -11 c-3 -22 -6 -23 -90 -34 -44 -6 -48 -4 -48 15 0
16 6 21 28 22 15 0 36 4 47 9 11 5 30 9 43 9 18 1 23 -4 20 -21z m452 -24 c0
-21 -17 -25 -59 -14 -31 8 -38 14 -34 29 4 16 9 17 49 8 24 -6 44 -16 44 -23z
m-2226 -26 c-74 -81 -142 -126 -166 -112 -6 4 -18 -2 -27 -13 -19 -25 -111
-57 -124 -44 -15 15 21 57 63 74 22 8 40 14 40 12 0 -1 -22 -20 -50 -41 -27
-21 -48 -40 -45 -42 2 -3 40 22 82 55 77 59 114 83 130 83 4 0 -10 -16 -31
-35 -22 -19 -37 -37 -34 -40 3 -3 33 21 66 54 49 49 119 98 141 101 2 0 -18
-24 -45 -52z m3256 11 c0 -5 3 -8 8 -6 4 3 7 -8 6 -25 -1 -25 -9 -35 -49 -60
-30 -19 -51 -26 -53 -19 -2 6 -8 11 -13 11 -6 0 -7 -5 -4 -10 9 -15 -5 -51
-17 -44 -6 4 -8 2 -5 -3 4 -6 -7 -29 -24 -53 -17 -23 -28 -44 -25 -47 2 -3 22
21 42 52 l38 57 13 -38 c15 -43 14 -45 -46 -68 -48 -19 -65 -12 -75 29 -7 28
4 61 32 93 11 13 27 33 36 45 13 19 17 20 27 7 9 -13 10 -13 6 1 -7 21 1 30
48 62 43 29 55 33 55 16z m-1252 -14 c2 -2 -23 -6 -55 -10 -32 -3 -67 -10 -78
-15 -36 -16 -110 -16 -100 0 4 6 11 7 17 4 7 -4 8 -2 4 4 -5 8 -15 8 -33 1
-22 -8 -24 -8 -14 5 7 8 27 16 44 18 39 4 210 -1 215 -7z m141 -15 c10 0 -11
-14 -27 -19 -28 -7 -237 -13 -230 -6 3 4 21 9 40 11 18 3 39 7 46 9 6 2 12 -1
12 -8 0 -8 4 -6 10 3 5 8 10 10 10 5 0 -6 20 -10 45 -10 51 1 72 12 23 13 -55
0 -65 4 -28 11 19 4 48 3 65 -1 16 -4 32 -8 34 -8z m895 -110 c10 -10 -12 -80
-26 -80 -5 0 -37 16 -69 35 -33 19 -64 35 -68 35 -15 0 -21 60 -9 80 11 17 16
16 87 -22 42 -22 80 -44 85 -48z m246 17 c0 -27 -32 -67 -72 -88 -20 -11 -24
-5 -33 42 -6 34 -5 36 42 65 52 33 63 29 63 -19z m82 3 c6 -42 0 -50 -29 -39
-15 5 -33 7 -40 5 -9 -4 -11 -1 -7 6 5 7 8 27 7 44 0 31 0 31 32 21 25 -7 34
-17 37 -37z m27 -112 c14 -61 14 -61 -1 -53 -7 4 -5 0 4 -8 19 -15 33 -132 22
-174 -5 -18 -9 -19 -45 -11 l-39 10 4 67 c3 36 3 57 0 46 -4 -16 -91 -85 -107
-85 -2 0 -3 10 -2 23 1 12 -6 58 -16 102 -9 44 -16 80 -16 81 1 0 21 15 43 32
23 18 46 32 51 32 6 0 16 -32 23 -71 9 -49 16 -66 22 -55 5 9 16 13 26 10 14
-5 14 -4 2 4 -8 6 -17 9 -21 7 -7 -5 -29 64 -29 93 0 18 3 19 34 10 31 -10 36
-16 45 -60z m-3743 43 c-4 -5 -21 -20 -39 -32 l-32 -22 35 35 c33 33 50 42 36
19z m-36 6 c0 -2 -10 -12 -22 -23 l-23 -19 19 23 c18 21 26 27 26 19z m3284
-18 c20 -12 36 -25 36 -29 0 -21 -18 -15 -50 16 -40 39 -36 43 14 13z m-61 -5
c-5 15 3 12 35 -14 24 -19 44 -43 47 -54 9 -47 12 -76 7 -76 -12 0 -142 124
-142 135 0 20 33 23 48 5 10 -13 11 -12 5 4z m191 -98 c-16 -14 -32 -26 -36
-26 -9 0 11 59 31 89 l16 25 9 -32 c7 -27 5 -34 -20 -56z m-34 37 c0 -8 -5
-23 -11 -34 -10 -20 -11 -20 -24 -2 -8 10 -15 13 -15 8 0 -6 5 -16 12 -23 9
-9 30 -102 23 -102 -2 0 -11 12 -21 28 -16 25 -29 135 -18 154 7 12 54 -14 54
-29z m205 -30 c12 -46 11 -48 -29 -111 -22 -36 -41 -61 -42 -56 -1 5 -14 47
-29 92 -15 46 -25 85 -23 87 7 8 103 43 107 39 2 -2 9 -25 16 -51z m-165 -58
c-7 -25 -10 -48 -7 -51 3 -3 11 20 18 50 13 61 17 62 35 11 11 -34 10 -36 -17
-56 -25 -18 -32 -19 -46 -7 -15 11 -16 10 -11 -9 4 -13 3 -25 -2 -28 -4 -3
-10 8 -12 25 -2 16 -1 27 4 24 10 -6 9 4 -1 30 -6 15 -1 26 18 42 14 12 28 21
30 18 2 -2 -2 -24 -9 -49z m-3550 11 c-30 -80 -91 -183 -113 -193 -26 -12 -26
-12 -22 31 6 57 18 87 45 111 20 18 19 13 -9 -44 -46 -91 -31 -87 19 6 33 63
71 111 87 113 1 0 -2 -11 -7 -24z m11 -66 c-6 -38 -15 -58 -32 -71 -36 -28
-41 -23 -20 19 10 20 26 55 35 76 21 51 27 43 17 -24z m3723 -25 c-1 -11 -17
-44 -35 -74 l-34 -54 -8 35 c-7 30 -3 43 30 98 34 58 38 61 43 39 4 -13 5 -33
4 -44z m-2590 30 c-9 -14 -20 -22 -26 -19 -5 3 -2 14 8 25 25 27 37 23 18 -6z
m200 0 c36 -5 49 -17 40 -39 -6 -15 -16 -17 -78 -12 -39 3 -83 5 -98 6 -24 0
-28 4 -28 30 l0 30 68 -6 c37 -3 80 -7 96 -9z m2497 -27 c-4 -28 -15 -43 -44
-62 -56 -38 -64 -34 -49 22 5 17 90 85 98 78 1 0 -1 -18 -5 -38z m-247 -10
l-4 -43 11 45 11 45 14 -45 c12 -39 11 -46 -4 -64 -9 -11 -11 -16 -5 -12 10 5
11 -4 6 -41 -3 -26 -3 -45 1 -42 3 3 7 18 8 32 1 15 6 27 10 27 10 0 10 -41 0
-58 -12 -18 -42 -4 -44 22 -1 11 -2 28 -4 36 -1 8 -2 24 -3 35 -1 14 -4 16 -9
7 -6 -8 -13 -2 -24 22 -16 33 -16 34 10 55 14 11 27 21 28 21 1 0 0 -19 -2
-42z m-2144 22 c0 -5 -7 -10 -15 -10 -8 0 -15 5 -15 10 0 6 7 10 15 10 8 0 15
-4 15 -10z m-364 -65 c-10 -14 -23 -24 -29 -22 -20 6 -20 37 -1 58 16 17 19
18 32 5 13 -13 13 -18 -2 -41z m-1247 -45 c-8 -25 -24 -49 -42 -62 l-30 -21
37 57 c20 32 35 63 33 69 -2 7 -11 -3 -21 -20 -9 -18 -19 -33 -21 -33 -6 0 16
51 29 68 18 25 28 -14 15 -58z m3695 54 c3 -8 2 -12 -4 -9 -6 3 -10 10 -10 16
0 14 7 11 14 -7z m-2500 -25 c6 -30 -1 -46 -82 -194 l-27 -50 -85 3 c-47 2
-87 5 -89 8 -2 2 14 29 35 60 21 32 44 64 49 73 6 8 16 21 23 29 6 7 12 18 12
24 0 5 7 8 14 5 10 -4 13 -1 10 8 -5 12 17 25 55 31 8 2 17 7 20 12 6 10 29
20 47 21 6 1 14 -13 18 -30z m2926 -15 c0 -12 -8 -28 -17 -35 -16 -13 -17 -12
-5 3 9 11 11 29 7 50 -5 25 -4 29 4 18 6 -8 11 -25 11 -36z m-3090 16 c-14
-11 -36 -23 -50 -27 -13 -3 -39 -15 -58 -26 -18 -11 -36 -17 -39 -14 -3 4 -17
-3 -31 -13 -13 -11 -36 -20 -51 -21 -14 0 -20 -3 -13 -6 15 -6 -62 -45 -88
-46 -8 0 -22 -6 -30 -13 -15 -12 -44 -14 -55 -2 -5 5 72 38 99 42 8 1 20 7 27
12 24 18 137 63 143 57 3 -3 13 0 22 8 14 11 128 65 144 68 3 0 -6 -8 -20 -19z
m2528 -89 c23 -12 23 -16 21 -124 -1 -62 -4 -118 -7 -124 -2 -7 -22 -18 -44
-24 -39 -10 -42 -9 -77 24 -20 19 -52 49 -71 66 -30 28 -40 49 -66 144 l-30
110 -22 -23 c-12 -13 -21 -31 -20 -39 2 -9 -2 -16 -9 -16 -15 0 -30 -15 -14
-15 7 0 9 -5 6 -10 -4 -6 -11 -8 -16 -5 -5 4 -6 -2 -2 -11 5 -13 3 -16 -10
-11 -10 4 -22 -1 -30 -13 -8 -11 -17 -17 -20 -14 -7 8 41 75 111 154 l32 38
123 -47 c67 -26 132 -53 145 -60z m510 94 c24 -7 24 -16 -2 -77 -11 -26 -12
-26 -45 -12 -32 13 -33 16 -26 51 9 49 13 55 33 49 10 -2 27 -7 40 -11z m-198
-57 c-12 -10 -17 -18 -11 -18 5 0 1 -16 -10 -35 -12 -19 -23 -35 -26 -35 -8 0
2 45 12 52 5 4 10 13 10 20 0 7 10 28 20 45 19 31 20 31 23 11 3 -14 -4 -29
-18 -40z m114 35 c-3 -16 -17 -57 -30 -93 -20 -55 -30 -69 -64 -88 -32 -18
-40 -19 -40 -8 0 8 4 17 9 20 5 3 16 36 25 74 15 61 21 70 59 94 23 15 43 28
45 28 1 0 0 -12 -4 -27z m-254 -16 c0 -5 -4 -5 -10 -2 -5 3 -10 14 -10 23 0
15 2 15 10 2 5 -8 10 -19 10 -23z m407 11 c-3 -8 -6 -5 -6 6 -1 11 2 17 5 13
3 -3 4 -12 1 -19z m-1927 -14 c74 -11 85 -13 88 -22 1 -4 25 -7 52 -6 27 1 67
-2 87 -7 21 -4 63 -11 93 -15 65 -7 92 -26 70 -48 -12 -11 -26 -13 -60 -6 -25
4 -70 11 -100 15 -30 3 -73 11 -95 17 -22 7 -44 11 -48 10 -5 -2 -36 2 -70 8
-99 16 -112 18 -119 19 -10 1 -10 35 -1 45 4 4 19 5 33 2 14 -3 45 -8 70 -12z
m-1187 -7 c-29 -47 -86 -127 -98 -137 -11 -9 -13 -5 -10 22 2 18 4 44 4 58 1
20 11 30 49 47 56 25 66 27 55 10z m2286 -101 c12 -45 21 -85 21 -89 0 -5 -25
-7 -55 -6 -30 1 -58 0 -62 -4 -3 -4 24 -7 61 -7 37 0 65 -4 62 -9 -3 -5 0 -8
8 -7 8 0 41 -25 74 -57 52 -49 60 -61 53 -80 -4 -12 -6 -28 -4 -34 3 -7 1 -13
-4 -14 -4 0 -15 -2 -23 -4 -8 -1 -46 -6 -85 -10 -38 -4 -74 -9 -79 -13 -5 -3
-7 2 -3 12 4 9 3 15 -2 12 -5 -3 -34 28 -65 69 l-56 75 20 20 c12 12 18 25 15
30 -4 6 -1 10 4 10 6 0 11 5 11 10 0 17 -18 11 -46 -15 -17 -16 -34 -23 -48
-20 -33 7 -239 56 -259 61 -14 5 -16 13 -11 47 4 23 8 44 10 46 2 2 68 -11
146 -29 117 -27 147 -38 166 -59 l23 -26 -5 37 c-3 22 0 40 6 44 8 5 9 1 5
-12 -4 -10 11 1 33 26 22 25 38 50 36 57 -6 14 0 20 18 20 9 0 21 -29 35 -81z
m820 17 c2 -39 -18 -25 -22 15 l-4 37 -1 -40 c-1 -23 2 -46 8 -53 5 -7 3 -6
-6 2 -8 7 -18 31 -21 54 -5 34 -2 41 13 44 20 4 31 -17 33 -59z m-97 28 l27
-10 -21 -53 c-12 -29 -34 -72 -50 -95 -22 -33 -32 -40 -50 -36 -22 4 -22 4 -5
-10 11 -10 14 -17 8 -22 -16 -10 -139 -152 -206 -238 -75 -97 -90 -108 -132
-93 l-32 11 39 45 c44 50 49 62 23 54 -15 -5 -15 -4 -3 4 8 6 17 9 21 6 4 -2
19 13 35 34 15 20 64 79 108 129 64 74 84 92 101 88 18 -5 18 -5 3 5 -16 10
-13 16 22 72 22 34 40 65 40 69 0 23 21 58 32 54 7 -2 25 -9 40 -14z m-3127
-8 c-2 -10 -4 -39 -4 -64 -1 -48 -15 -64 -46 -53 -11 4 -15 21 -15 59 0 44 3
54 23 63 33 16 46 14 42 -5z m-959 -85 c-38 -108 -47 -127 -75 -152 l-20 -19
19 69 c11 38 25 87 32 110 7 25 22 48 42 62 17 12 31 22 32 22 1 0 -13 -42
-30 -92z m-45 59 c-10 -9 -11 -8 -5 6 3 10 9 15 12 12 3 -3 0 -11 -7 -18z
m2884 4 c32 -5 41 -11 43 -30 4 -24 3 -24 -54 -17 -94 11 -102 14 -96 42 4 21
8 23 36 18 17 -3 49 -9 71 -13z m1079 -5 c-3 -9 -10 -16 -15 -16 -6 0 -5 9 1
21 13 24 24 20 14 -5z m-1199 4 c3 -5 2 -10 -4 -10 -5 0 -13 5 -16 10 -3 6 -2
10 4 10 5 0 13 -4 16 -10z m1126 -33 c-8 -8 -11 -7 -11 4 0 20 13 34 18 19 3
-7 -1 -17 -7 -23z m294 -3 c19 -46 19 -65 -1 -112 l-15 -37 -20 44 c-18 42
-19 47 -3 93 8 26 17 48 20 48 2 0 11 -16 19 -36z m-4215 -83 c-12 -39 -23
-71 -25 -71 -2 0 -6 7 -9 16 -3 8 -2 12 4 9 6 -4 10 12 10 39 0 30 6 52 18 64
9 10 18 18 20 16 2 -1 -6 -34 -18 -73z m3963 64 c-3 -9 -8 -14 -10 -11 -3 3
-2 9 2 15 9 16 15 13 8 -4z m-3229 -3 c3 -5 -14 -13 -37 -19 l-42 -11 24 19
c24 20 46 24 55 11z m-89 -21 c-21 -20 -36 -25 -70 -21 -16 1 41 27 85 39 2 0
-4 -8 -15 -18z m3375 -20 c-11 -21 -72 -72 -78 -66 -9 8 22 48 51 65 39 24 40
24 27 1z m-3450 -22 c0 -5 -4 -9 -10 -9 -5 0 -47 -22 -92 -49 -63 -37 -90 -48
-111 -44 -15 3 -27 9 -27 13 0 15 194 107 217 102 13 -2 23 -8 23 -13z m3606
-46 c14 -31 13 -37 -7 -74 -13 -21 -26 -39 -31 -39 -4 0 -8 -6 -8 -12 -1 -18
-50 -76 -50 -60 0 7 -5 10 -10 7 -6 -3 -14 4 -19 17 -6 13 -10 17 -10 10 -1
-7 6 -23 14 -35 14 -21 12 -26 -16 -60 -17 -20 -35 -35 -40 -32 -5 4 -9 -2 -9
-12 0 -22 -37 -78 -99 -152 -48 -57 -158 -144 -172 -136 -8 6 -59 94 -59 104
0 3 23 22 52 41 71 48 102 80 196 197 82 102 111 132 99 100 -3 -9 -2 -19 4
-22 5 -4 9 -3 8 2 -3 19 2 34 10 29 5 -4 7 3 4 14 -4 14 3 30 18 46 l24 26 6
-34 6 -33 2 38 c1 40 13 70 39 99 18 22 30 15 48 -29z m-4236 -10 c-11 -17
-11 -17 -6 0 3 10 6 24 7 30 0 9 2 9 5 0 3 -7 0 -20 -6 -30z m749 -82 c55 -73
67 -96 58 -106 -12 -13 -31 1 -21 16 2 4 -6 15 -18 23 -12 9 -19 16 -15 16 4
0 0 11 -9 25 -9 14 -23 25 -31 25 -8 0 -12 4 -9 9 3 5 -1 12 -10 15 -8 3 -12
10 -9 16 3 5 2 10 -4 10 -6 0 -8 7 -5 15 4 8 1 15 -5 15 -6 0 -11 -4 -11 -10
0 -15 1 -11 -31 -127 -16 -60 -29 -111 -29 -115 0 -5 41 -8 90 -8 53 0 90 -4
90 -10 0 -5 9 -19 19 -29 19 -19 18 -21 -46 -109 -64 -88 -66 -90 -97 -81 -17
4 -42 10 -56 13 -71 12 -210 49 -215 56 -7 12 -13 66 -15 145 -3 97 -3 95 29
95 41 0 75 44 68 87 -5 26 -1 35 19 48 40 26 168 73 181 66 7 -3 44 -48 82
-100z m3254 60 c-9 -11 -21 -18 -25 -15 -5 3 -1 12 9 20 26 20 35 17 16 -5z
m-3980 -42 c-3 -11 -10 -22 -16 -26 -6 -4 -8 2 -4 18 4 13 7 31 7 39 0 12 2
13 9 1 5 -7 6 -22 4 -32z m3910 18 c-69 -95 -80 -103 -134 -106 -29 -1 -56 -4
-60 -6 -3 -3 -18 7 -33 21 -21 21 -24 30 -15 46 13 25 22 28 126 42 126 17
126 17 116 3z m-3523 -6 c24 -7 22 -9 -25 -33 -41 -21 -56 -23 -84 -16 l-34 9
49 24 c54 26 58 26 94 16z m308 -44 c5 1 14 -8 22 -20 12 -21 12 -21 -5 -7
-14 11 -12 6 5 -17 23 -32 39 -46 24 -21 -4 6 -3 8 3 5 5 -3 10 -26 12 -51 l2
-46 -86 0 c-47 0 -85 2 -85 4 0 2 11 43 25 90 14 47 25 94 25 104 1 13 7 10
26 -13 13 -16 28 -29 32 -28z m3252 39 c0 -2 -7 -7 -16 -10 -8 -3 -12 -2 -9 4
6 10 25 14 25 6z m-3554 -83 c-22 -18 -31 -21 -47 -13 -28 15 -24 27 19 49 33
17 38 18 46 3 7 -11 2 -22 -18 -39z m-366 -10 c21 -49 21 -52 4 -78 -13 -20
-19 -23 -25 -13 -5 7 -9 9 -9 3 -1 -5 -9 10 -19 35 -17 44 -17 46 3 77 12 17
21 31 22 30 1 -1 12 -25 24 -54z m4175 25 c-3 -17 -10 -38 -16 -47 -9 -15 -6
12 8 62 8 29 14 19 8 -15z m-3927 13 c23 -6 22 -7 -17 -29 -30 -17 -50 -22
-71 -17 -37 8 -38 20 -2 38 30 16 55 18 90 8z m3622 -5 c0 -3 -4 -8 -10 -11
-5 -3 -10 -1 -10 4 0 6 5 11 10 11 6 0 10 -2 10 -4z m310 -73 c-11 -17 -11
-17 -6 0 3 10 7 26 7 35 1 15 2 15 6 0 2 -10 -1 -25 -7 -35z m-4018 20 c4 -2
2 -13 -5 -23 -12 -20 -32 -26 -40 -12 -2 4 -2 1 0 -7 2 -8 -9 -32 -23 -53 -25
-35 -30 -38 -58 -32 -17 3 -34 8 -39 11 -12 7 24 61 66 99 36 33 63 37 99 17z
m127 -36 c1 -5 -3 -5 -9 -2 -5 3 -10 16 -9 28 0 21 1 21 9 2 5 -11 9 -24 9
-28z m3822 -22 c-19 -59 -19 -59 -20 -22 -1 22 6 48 17 62 9 13 18 22 19 21 1
-1 -6 -29 -16 -61z m-2847 43 c-3 -4 -11 -5 -19 -1 -21 7 -19 12 4 10 11 0 18
-5 15 -9z m-208 -8 c9 -8 10 -76 0 -87 -1 -1 -50 -5 -109 -9 -85 -5 -107 -4
-107 7 0 10 -3 10 -12 1 -17 -17 -48 -15 -70 5 -24 22 -23 35 6 62 19 18 28
21 44 12 11 -6 23 -6 28 -1 8 8 29 10 163 17 25 2 50 -2 57 -7z m158 1 c4 -5
-3 -7 -14 -4 -23 6 -26 13 -6 13 8 0 17 -4 20 -9z m-969 -70 c-13 -13 -15 -13
-11 -1 2 8 8 29 12 45 l8 30 4 -29 c2 -18 -3 -35 -13 -45z m1068 62 c-7 -2
-19 -2 -25 0 -7 3 -2 5 12 5 14 0 19 -2 13 -5z m2826 -30 c-3 -37 -18 -73 -30
-73 -4 0 1 25 9 55 8 30 17 55 19 55 3 0 3 -17 2 -37z m-4214 17 c-3 -5 0 -10
8 -10 22 0 38 -65 21 -87 -8 -10 -14 -13 -13 -8 4 29 -2 85 -9 85 -5 0 -7 -15
-5 -32 l3 -33 -14 29 c-14 30 -11 66 6 66 5 0 6 -4 3 -10z m276 -13 c-10 -9
-11 -8 -5 6 3 10 9 15 12 12 3 -3 0 -11 -7 -18z m1024 -1 c14 -2 20 -11 22
-30 l2 -27 -67 7 c-115 11 -117 12 -107 43 5 18 12 20 68 15 34 -3 71 -7 82
-8z m229 -1 c3 -8 1 -15 -4 -15 -6 0 -10 7 -10 15 0 8 2 15 4 15 2 0 6 -7 10
-15z m-24 -3 c0 -5 -13 -7 -30 -4 -16 2 -30 6 -30 8 0 2 14 4 30 4 17 0 30 -4
30 -8z m116 -1 c-4 -5 0 -11 6 -14 7 -3 3 -4 -9 -4 -17 1 -19 4 -11 14 12 15
22 18 14 4z m-215 -18 c20 -4 25 -9 22 -24 -6 -22 -5 -22 -54 -7 -37 10 -48
26 -32 42 4 3 14 4 22 0 9 -4 28 -9 42 -11z m1885 -7 c49 -17 69 -28 68 -40
-2 -18 7 -21 22 -6 6 6 19 8 28 4 16 -6 17 -16 11 -89 -3 -45 -8 -91 -10 -101
-2 -11 -4 -32 -4 -47 -1 -24 -4 -27 -28 -24 -24 3 -28 9 -28 35 0 16 -3 28 -7
25 -5 -2 -8 -17 -8 -33 0 -48 -29 -43 -82 14 -26 28 -47 60 -48 70 0 23 -13
13 -16 -12 -9 -64 -38 -192 -43 -192 -3 1 -24 30 -46 65 -26 43 -42 81 -45
113 l-6 47 -5 -43 c-4 -38 1 -50 44 -118 27 -41 46 -78 43 -81 -8 -8 -5 -10
-55 68 -22 36 -41 71 -41 78 0 6 -9 11 -20 11 -11 0 -27 12 -37 26 -17 26 -16
27 11 51 16 14 35 21 45 18 16 -5 61 30 54 41 -2 2 -1 3 0 2 9 -7 36 25 30 35
-3 5 -2 7 4 4 6 -4 21 5 34 19 l24 26 6 -69 6 -68 1 70 c1 147 -8 137 98 101z
m-3066 10 c0 -2 -11 -11 -25 -20 -25 -17 -25 -16 -13 4 11 17 38 29 38 16z
m3897 -71 c-11 -41 -21 -74 -23 -73 -1 2 -4 22 -5 45 -2 32 3 50 19 73 13 16
24 30 26 30 1 0 -6 -34 -17 -75z m-2350 59 c-3 -3 -12 -4 -19 -1 -8 3 -5 6 6
6 11 1 17 -2 13 -5z m-1487 -27 c0 -25 -44 -55 -55 -37 -6 9 11 50 21 50 2 0
0 -9 -6 -21 -7 -11 -9 -23 -7 -26 3 -3 13 9 22 26 19 37 25 39 25 8z m1357 7
c100 -7 128 -19 117 -48 -6 -15 -15 -17 -63 -12 -31 3 -90 8 -131 12 -86 7
-129 27 -109 50 9 11 24 14 53 10 23 -3 83 -8 133 -12z m-1427 -4 c0 -5 -5
-10 -11 -10 -5 0 -7 5 -4 10 3 6 8 10 11 10 2 0 4 -4 4 -10z m130 -46 c0 -36
-25 -53 -39 -26 -10 21 -7 48 10 68 16 20 29 1 29 -42z m-373 24 c-3 -8 -6 -5
-6 6 -1 11 2 17 5 13 3 -3 4 -12 1 -19z m1955 4 c21 -21 -7 -35 -76 -37 -64
-2 -64 -2 -61 24 2 14 4 26 4 27 7 7 124 -5 133 -14z m-1792 -25 c0 -7 4 -7
12 1 7 7 19 12 27 12 11 0 9 -4 -6 -15 -12 -9 -26 -14 -32 -13 -5 2 -16 -5
-23 -14 -11 -15 -19 -16 -51 -7 l-37 10 16 28 c16 27 19 28 55 18 22 -5 39
-14 39 -20z m4014 -4 c-4 -21 -13 -49 -20 -63 -14 -24 -14 -23 -8 15 8 46 21
85 29 85 3 0 3 -17 -1 -37z m-3949 -23 c-4 -13 -12 -19 -20 -16 -8 3 -12 0
-10 -7 5 -11 -55 -61 -63 -52 -11 10 12 45 29 45 11 0 18 4 15 9 -6 9 45 53
52 46 2 -2 1 -13 -3 -25z m-198 -12 c-3 -7 -5 -2 -5 12 0 14 2 19 5 13 2 -7 2
-19 0 -25z m243 -13 c-12 -20 -20 -38 -17 -41 3 -3 15 13 28 35 27 49 38 52
37 11 -1 -16 -5 -30 -10 -30 -4 0 -7 -3 -6 -7 2 -5 -13 -30 -32 -58 -32 -46
-35 -48 -38 -25 -4 23 4 33 54 68 18 12 18 13 -1 7 -49 -16 -53 -14 -51 15 1
17 12 37 27 48 33 27 36 20 9 -23z m3815 -7 c-4 -24 -8 -50 -10 -58 -2 -8 -4
-23 -4 -33 -1 -10 -5 -16 -10 -12 -5 3 -13 0 -17 -6 -4 -8 -3 -9 4 -5 22 13 2
-66 -25 -101 -14 -19 -27 -32 -29 -30 -2 2 2 25 10 51 8 25 14 49 14 51 1 30
16 85 24 85 6 0 7 7 4 15 -5 13 31 84 43 85 2 0 0 -19 -4 -42z m-231 23 c16
-6 12 -12 -30 -42 -71 -51 -70 -51 -105 -37 l-31 13 53 38 c52 37 76 43 113
28z m256 -50 c0 -44 -5 -65 -20 -82 l-19 -24 9 35 c4 19 11 56 15 83 3 26 8
47 11 47 2 0 4 -27 4 -59z m-4012 34 c21 -6 22 -10 16 -73 -4 -37 -8 -68 -9
-70 -4 -5 -80 25 -79 32 1 3 5 33 8 67 6 50 10 59 24 55 9 -2 27 -7 40 -11z
m254 -42 c-16 -44 -17 -46 -20 -20 -3 23 19 67 34 67 2 0 -5 -21 -14 -47z m45
25 c2 -17 0 -19 -7 -8 -5 8 -6 18 -4 22 8 12 10 10 11 -14z m-177 -69 l0 -71
-40 4 c-22 2 -40 0 -40 -4 0 -5 15 -8 34 -8 19 0 38 -5 42 -12 4 -7 3 -8 -4
-4 -6 4 -29 -2 -51 -14 -48 -24 -55 -25 -47 -5 3 8 1 15 -4 15 -6 0 -10 -8
-10 -17 0 -12 -9 -5 -27 20 -14 20 -28 35 -31 32 -3 -3 2 -13 10 -22 30 -35
30 -42 1 -34 -22 6 -27 13 -25 32 2 13 7 27 10 30 11 10 73 -11 67 -21 -4 -6
-1 -10 4 -10 6 0 11 21 11 50 0 41 4 51 23 61 12 7 24 15 27 19 4 6 41 29 48
30 1 0 2 -32 2 -71z m156 36 c-1 -8 -8 -21 -16 -28 -10 -10 -12 -9 -6 6 3 10
6 23 6 28 0 5 4 9 9 9 5 0 8 -7 7 -15z m2192 -23 c3 -22 1 -23 -55 -20 -45 2
-59 7 -61 20 -3 18 15 23 78 23 29 0 36 -4 38 -23z m187 14 c44 -3 81 -5 83
-5 2 -1 0 -7 -5 -13 -4 -7 -6 -21 -4 -32 1 -10 -1 -16 -6 -13 -4 3 -53 8 -107
11 -96 6 -131 17 -123 40 4 12 45 24 67 19 8 -1 51 -5 95 -7z m222 -34 l-2
-45 -57 -3 c-49 -3 -59 0 -68 16 -6 11 -8 31 -4 44 6 26 19 30 96 32 l37 1 -2
-45z m1032 -39 c-11 -49 -22 -95 -26 -103 -3 -8 -8 -24 -10 -35 -2 -11 -13
-28 -26 -38 -12 -10 -30 -25 -40 -33 -25 -20 -30 -18 -23 14 5 22 4 24 -5 9
-6 -10 -8 -25 -5 -33 3 -8 1 -14 -4 -14 -5 0 -11 8 -14 18 -3 10 -4 7 -3 -7 2
-19 -11 -35 -53 -67 -30 -24 -61 -43 -67 -44 -7 0 -13 -4 -13 -8 0 -13 -158
-97 -240 -128 -66 -24 -79 -33 -108 -76 -40 -60 -34 -63 8 -4 26 35 45 49 101
71 39 15 72 25 75 22 5 -4 -84 -134 -133 -194 -13 -16 -122 -59 -173 -68 -3 0
-32 -11 -65 -24 -129 -49 -334 -101 -480 -120 -88 -12 -229 -41 -340 -71 -104
-27 -235 -59 -290 -71 -82 -16 -130 -35 -260 -100 -88 -44 -167 -84 -175 -89
-38 -24 -196 -110 -302 -165 -64 -33 -184 -107 -265 -165 -81 -58 -222 -152
-313 -209 -168 -105 -319 -210 -320 -223 0 -4 37 21 82 55 46 34 124 86 173
116 146 86 211 129 370 242 83 58 206 135 275 171 69 36 184 98 255 138 278
156 395 207 522 226 21 3 67 14 103 24 198 57 378 97 525 115 28 3 64 8 80 11
44 7 244 61 308 83 45 16 55 17 50 5 -3 -8 -8 -14 -12 -14 -9 0 -87 -69 -79
-70 4 0 13 6 20 13 82 76 155 121 215 131 33 6 23 -5 -52 -59 -73 -52 -138
-83 -184 -89 -17 -2 -37 -8 -44 -15 -20 -16 -172 -63 -242 -75 -16 -3 -43 -7
-60 -10 -16 -3 -52 -8 -80 -12 -52 -6 -315 -71 -395 -97 -25 -8 -88 -25 -140
-37 -105 -25 -250 -91 -444 -203 -67 -38 -182 -101 -256 -139 -74 -39 -153
-83 -175 -99 -22 -16 -79 -58 -126 -93 -47 -35 -155 -107 -240 -161 -136 -86
-268 -180 -333 -236 -93 -80 -87 -77 -106 -54 -7 8 -18 15 -24 15 -6 0 -1 -8
12 -18 26 -20 25 -23 -53 -75 -43 -28 -98 -90 -154 -171 -46 -69 -105 -133
-120 -130 -6 1 -7 0 -2 -2 5 -3 -1 -29 -15 -59 -13 -30 -29 -75 -35 -99 l-11
-45 -50 31 -50 31 6 44 c7 54 66 181 96 208 12 11 43 51 69 89 51 77 142 174
190 202 17 10 31 22 31 27 0 9 -80 -46 -114 -79 -31 -30 -68 -73 -101 -121
-17 -24 -35 -41 -41 -39 -7 3 -10 -3 -8 -12 4 -15 -45 -82 -59 -82 -4 0 -9 23
-13 50 -4 28 -11 50 -16 50 -5 0 -7 -3 -5 -7 3 -5 8 -32 12 -61 8 -62 -17
-144 -41 -135 -11 4 -12 9 -4 18 8 9 8 15 0 20 -6 4 -9 3 -8 -2 2 -4 0 -10 -5
-13 -4 -3 -20 18 -36 45 -28 49 -28 51 -13 90 9 22 18 42 21 45 3 3 7 11 9 19
2 8 12 27 23 42 25 36 24 51 -2 20 l-20 -25 2 110 c2 79 7 120 20 149 18 40
18 40 19 10 0 -23 3 -26 10 -15 7 11 15 2 33 -40 l24 -54 -20 -33 c-11 -19
-17 -36 -14 -40 4 -3 12 6 18 20 7 15 16 24 20 21 5 -3 9 2 9 12 0 27 85 120
156 170 35 25 64 51 64 57 0 9 -3 9 -8 1 -4 -6 -36 -32 -71 -57 -49 -35 -67
-44 -74 -34 -6 8 -7 7 -4 -4 3 -9 -8 -31 -24 -50 -16 -19 -29 -38 -29 -42 0
-5 -5 -7 -11 -5 -11 4 -59 114 -59 136 0 20 61 102 71 96 5 -3 9 1 9 10 0 8
42 47 93 88 50 40 99 80 107 89 27 29 168 139 207 162 88 51 232 147 327 217
147 110 258 181 366 235 52 26 133 69 178 96 250 148 478 251 616 280 60 13
104 25 98 27 -13 4 -185 -32 -228 -48 -94 -34 -402 -191 -509 -258 -22 -14
-96 -55 -165 -90 -103 -53 -291 -169 -310 -191 -13 -15 -127 -95 -245 -172
-171 -112 -160 -106 -152 -83 7 19 7 19 -8 0 -8 -10 -16 -22 -17 -25 -2 -4
-25 -24 -53 -46 -27 -22 -79 -64 -114 -95 l-64 -55 27 54 c15 29 25 55 23 57
-2 3 -16 -21 -31 -53 -23 -50 -112 -150 -124 -139 -3 4 46 96 59 110 5 6 9 15
9 20 0 6 -20 -20 -45 -59 l-45 -70 2 38 c2 43 44 93 85 103 13 4 23 11 23 16
0 20 85 89 103 84 14 -3 16 -1 7 9 -8 10 1 23 41 56 28 24 57 49 63 55 35 33
138 94 149 88 6 -4 9 -4 5 1 -9 10 2 20 97 84 44 30 82 57 85 60 40 45 273
202 376 254 49 25 118 62 154 83 154 89 319 178 379 206 36 17 91 42 121 56
47 21 115 41 195 58 19 3 102 25 290 74 44 11 89 22 100 24 11 2 47 11 80 19
33 9 78 18 100 21 22 3 92 12 156 20 112 15 309 61 386 91 21 8 92 28 158 44
209 52 343 108 469 196 36 26 70 44 75 41 16 -10 61 -98 55 -107 -9 -16 -121
-88 -127 -83 -3 3 -3 -4 0 -16 5 -19 7 -20 15 -6 10 17 128 101 128 90 0 -3 8
3 18 14 28 32 92 75 92 62 0 -6 6 -10 12 -8 7 3 13 11 13 20 0 11 53 88 61 88
1 0 -7 -39 -17 -87z m-3691 29 c-4 -2 -6 -7 -3 -12 5 -8 -55 -34 -61 -27 -2 2
11 23 28 47 31 42 33 43 38 19 4 -13 3 -26 -2 -27z m3420 23 c6 -5 -106 -80
-176 -118 -64 -34 -77 -38 -105 -30 l-32 9 53 30 c29 16 85 52 125 80 65 47
74 51 102 41 16 -5 31 -11 33 -12z m-3390 -60 c-15 -30 -25 -41 -30 -32 -5 7
-8 2 -8 -16 0 -15 -7 -30 -15 -33 -8 -4 -15 -14 -15 -23 0 -9 -16 -32 -35 -51
l-35 -34 0 26 c0 15 7 33 15 42 8 8 15 17 15 20 0 18 71 87 82 80 4 -3 8 3 8
12 0 15 26 54 36 54 2 0 -6 -20 -18 -45z m2909 7 c12 -15 30 -37 41 -50 36
-41 18 -62 -80 -92 -16 -5 -28 -6 -28 -2 0 23 34 172 39 172 3 0 16 -13 28
-28z m-2878 -36 c-16 -18 -28 4 -16 31 l12 26 6 -24 c3 -13 3 -28 -2 -33z m35
28 c3 -9 6 -28 5 -42 0 -15 -3 -21 -6 -14 -2 6 -8 10 -11 8 -4 -2 -7 11 -8 30
-1 36 10 45 20 18z m-146 -44 c-36 -44 -48 -49 -48 -22 0 22 10 36 35 50 40
23 45 11 13 -28z m-62 -53 c-3 -14 -23 -30 -53 -43 -26 -12 -50 -20 -51 -18
-2 1 -1 17 3 34 5 21 11 30 21 26 7 -3 13 -1 11 5 -1 6 14 19 33 30 31 17 35
18 38 3 2 -8 1 -25 -2 -37z m257 -46 c23 -19 22 -44 -3 -66 -19 -17 -22 -16
-90 25 -39 23 -73 47 -76 51 -3 5 4 25 16 44 l21 34 57 -36 c31 -21 65 -44 75
-52z m-19 73 c3 -8 2 -12 -4 -9 -6 3 -10 10 -10 16 0 14 7 11 14 -7z m2956 11
c0 -2 -10 -9 -22 -15 -22 -11 -22 -10 -4 4 21 17 26 19 26 11z m-2621 -107
c34 -72 40 -92 30 -99 -8 -5 -17 -9 -21 -9 -4 0 -27 40 -51 90 -24 49 -47 87
-50 84 -3 -3 -3 -12 0 -20 3 -8 2 -22 -2 -31 -18 -43 -55 -149 -54 -158 0 -5
14 26 30 70 17 44 31 81 33 83 2 1 18 -25 35 -59 46 -90 48 -161 5 -236 l-31
-55 -20 44 c-11 23 -28 64 -38 91 -10 26 -20 45 -22 43 -6 -5 70 -196 77 -196
3 0 19 25 35 56 37 68 45 76 67 60 15 -11 12 -19 -25 -84 -28 -49 -47 -72 -60
-72 -10 0 -16 4 -12 9 3 5 0 13 -6 17 -8 4 -9 3 -5 -4 4 -7 4 -12 -1 -12 -19
0 -239 62 -247 70 -9 9 -11 21 -21 144 -4 44 -9 84 -12 89 -2 4 3 7 12 7 9 0
27 12 42 26 19 19 24 32 20 53 -5 25 -2 28 41 40 26 8 79 24 117 36 39 12 75
20 81 18 5 -2 29 -45 53 -95z m-703 22 c3 0 -4 13 -15 29 -28 38 -27 42 9 30
33 -12 35 -17 19 -53 -11 -24 -13 -24 -43 -9 -28 13 -32 19 -28 44 l4 30 25
-35 c13 -20 26 -36 29 -36z m3365 50 c5 0 9 -4 9 -9 0 -5 -24 -16 -52 -26 -72
-23 -86 -25 -110 -16 -18 6 -14 10 28 26 27 11 54 18 61 17 6 -1 15 2 18 8 4
6 14 9 22 6 8 -3 19 -6 24 -6z m570 -42 c-23 -59 -40 -92 -40 -78 -1 17 35
100 43 100 3 0 2 -10 -3 -22z m-3811 -17 c0 -37 -13 -53 -57 -72 -56 -24 -53
-24 -54 9 -1 24 -2 23 -8 -8 -4 -19 -6 -36 -5 -38 0 -1 26 9 58 23 31 14 59
25 61 25 3 0 5 -16 5 -35 0 -19 9 -59 21 -90 12 -31 19 -58 17 -59 -15 -14
-108 -54 -108 -48 0 5 -10 8 -22 6 -31 -5 -51 13 -71 63 -16 40 -16 42 1 36
36 -13 62 -36 62 -54 0 -10 5 -21 10 -24 6 -3 10 -3 9 2 -1 13 -27 79 -28 70
-1 -4 -18 1 -40 12 -35 19 -39 24 -43 70 -3 28 -2 66 1 86 l6 35 37 -19 36
-20 49 24 c59 29 63 30 63 6z m118 -41 c5 0 16 -17 24 -38 l15 -38 -53 -58
-53 -58 -16 37 c-8 21 -15 40 -15 42 0 3 20 28 45 56 24 28 42 53 39 56 -2 3
-11 -5 -20 -17 -22 -32 -60 -72 -68 -72 -3 0 -6 18 -6 39 0 28 8 48 26 69 l26
29 24 -23 c12 -13 27 -24 32 -24z m2951 41 c15 -10 -30 -28 -89 -34 -19 -3
-66 -16 -105 -30 -74 -28 -90 -29 -53 -5 32 21 148 57 148 46 0 -5 17 0 38 11
43 23 43 23 61 12z m742 -38 c-12 -20 -14 -14 -5 12 4 9 9 14 11 11 3 -2 0
-13 -6 -23z m-98 -64 c-21 -39 -48 -82 -60 -95 -13 -14 -23 -30 -23 -36 0 -11
-62 -69 -68 -64 -2 2 14 37 35 77 36 71 38 72 44 44 5 -26 6 -24 13 22 7 45
14 58 49 88 23 19 43 35 45 35 2 0 -14 -32 -35 -71z m35 1 c-10 -41 -55 -106
-66 -96 -2 3 13 36 34 75 21 39 39 69 40 68 2 -2 -2 -23 -8 -47z m-3578 12 c0
-15 -2 -15 -10 -2 -13 20 -13 33 0 25 6 -3 10 -14 10 -23z m2585 -8 c-11 -8
-25 -12 -32 -10 -7 3 -13 2 -13 -3 0 -9 -60 -24 -67 -17 -6 5 97 45 117 45 11
0 10 -3 -5 -15z m-2565 -26 c-1 -26 -3 -30 -10 -16 -6 9 -7 23 -4 32 9 25 14
19 14 -16z m-20 -23 c0 -8 5 -15 11 -15 5 0 7 -4 4 -10 -3 -5 -2 -18 4 -27 5
-10 11 -46 14 -81 6 -69 18 -92 51 -92 11 0 36 -9 55 -21 18 -11 40 -18 47
-15 7 3 34 -1 58 -8 25 -8 48 -11 52 -7 4 3 4 -2 1 -12 -5 -13 -3 -16 5 -11 7
4 33 9 58 10 39 1 51 -3 95 -40 28 -22 56 -46 63 -53 6 -6 21 -15 32 -18 11
-3 20 -9 20 -13 0 -10 -60 -35 -67 -28 -3 3 -11 2 -17 -3 -8 -7 -18 0 -31 19
-11 17 -33 32 -49 36 -25 5 -34 2 -51 -20 -17 -22 -23 -24 -35 -14 -13 11 -13
11 -2 -2 14 -16 16 -50 4 -50 -5 0 -26 -22 -48 -49 -34 -42 -43 -47 -60 -39
-18 10 -18 10 -2 -7 16 -18 19 -17 57 26 22 24 40 47 41 52 0 11 20 8 20 -4 0
-6 14 -30 31 -54 20 -28 28 -48 23 -57 -6 -10 -4 -10 9 1 15 12 17 11 18 -5 1
-20 1 -24 17 -93 12 -51 12 -53 -26 -80 l-28 -20 -57 29 c-61 31 -117 68 -129
85 -4 5 -8 7 -8 3 0 -8 -40 29 -40 37 0 2 17 16 37 30 21 14 33 25 28 25 -6 0
-23 -11 -40 -24 -24 -19 -34 -22 -52 -13 -13 6 -23 14 -23 19 0 5 -5 6 -12 2
-6 -4 -8 -3 -5 3 10 15 -29 56 -45 47 -7 -4 -10 -3 -5 1 11 12 -43 65 -59 58
-13 -5 -19 8 -15 31 3 14 -31 46 -41 40 -5 -3 -1 -12 9 -20 15 -11 15 -13 2
-14 -8 0 -26 11 -39 25 -13 14 -18 25 -11 25 7 0 9 5 5 12 -4 7 -3 8 4 4 7 -4
12 -2 12 3 0 14 -12 14 -28 1 -6 -6 -10 -7 -7 -4 2 4 -6 15 -18 25 -24 20 -17
25 14 8 19 -9 19 -9 7 13 -7 13 -15 25 -18 28 -3 3 -13 19 -22 37 l-17 32 54
29 54 30 16 -22 c15 -21 16 -21 4 2 -11 26 -10 29 59 102 17 19 32 38 32 43 0
4 -24 -19 -52 -52 l-53 -59 -16 36 c-19 43 -19 44 41 111 47 53 60 61 60 36z
m738 6 c30 -1 32 -3 21 -22 -6 -12 -9 -34 -7 -50 l4 -28 -150 4 c-133 4 -152
6 -170 24 -17 18 -18 23 -6 45 7 14 20 27 29 28 13 3 136 2 279 -1z m142 3 c0
-8 -19 -13 -24 -6 -3 5 1 9 9 9 8 0 15 -2 15 -3z m1535 -4 c-27 -12 -43 -12
-25 0 8 5 22 9 30 9 10 0 8 -3 -5 -9z m998 -82 c-45 -88 -48 -92 -54 -63 -6
28 -7 28 -8 -10 -2 -37 -7 -43 -56 -78 -30 -21 -55 -35 -55 -33 0 3 23 44 51
92 31 51 55 81 59 74 5 -8 9 -7 13 5 4 9 3 13 -3 10 -6 -3 -10 -1 -10 4 0 6 5
11 10 11 6 0 10 6 10 13 1 12 67 66 83 67 4 0 -14 -42 -40 -92z m-2298 72 c3
-6 -1 -7 -9 -4 -18 7 -21 14 -7 14 6 0 13 -4 16 -10z m-172 -7 c-7 -2 -19 -2
-25 0 -7 3 -2 5 12 5 14 0 19 -2 13 -5z m84 1 c-3 -3 -12 -4 -19 -1 -8 3 -5 6
6 6 11 1 17 -2 13 -5z m1320 0 c-3 -3 -12 -4 -19 -1 -8 3 -5 6 6 6 11 1 17 -2
13 -5z m-1497 -23 c-2 -22 -31 -41 -59 -39 -25 2 -31 7 -31 26 0 21 4 23 45
21 25 -2 45 -5 45 -8z m117 3 c-3 -3 -12 -4 -19 -1 -8 3 -5 6 6 6 11 1 17 -2
13 -5z m176 -1 c-7 -2 -21 -2 -30 0 -10 3 -4 5 12 5 17 0 24 -2 18 -5z m44 0
c-9 -2 -15 -9 -12 -14 4 -5 -3 -9 -15 -9 -17 0 -19 2 -8 15 7 8 22 14 33 13
17 0 17 -1 2 -5z m-74 -20 c-7 -2 -21 -2 -30 0 -10 3 -4 5 12 5 17 0 24 -2 18
-5z m-118 -18 c44 -4 84 -11 89 -15 5 -5 18 -5 30 -1 11 4 35 7 51 6 17 -1 69
-3 116 -4 70 -1 88 -4 93 -17 12 -31 -11 -41 -82 -38 -224 9 -394 21 -419 29
-25 8 0 58 25 51 10 -3 53 -8 97 -11z m2328 -27 c-114 -191 -103 -178 -177
-214 -38 -19 -71 -34 -73 -34 -5 0 16 40 29 54 49 59 98 138 92 148 -4 7 -4
10 0 7 4 -4 35 10 69 31 34 22 66 39 70 39 5 1 0 -14 -10 -31z m-1448 2 c-3
-5 -12 -10 -18 -10 -7 0 -6 4 3 10 19 12 23 12 15 0z m-1986 -51 c6 -18 11
-36 11 -40 0 -7 -91 -59 -103 -59 -5 0 -29 81 -25 85 10 9 85 44 95 45 6 0 16
-14 22 -31z m-135 -25 c9 -8 16 -24 16 -34 0 -10 9 -35 21 -54 23 -40 34 -86
19 -86 -16 0 -112 169 -103 183 7 12 31 8 47 -9z m3505 -107 c-2 -1 -14 -11
-26 -21 -13 -11 -23 -16 -23 -13 0 10 31 37 42 37 6 0 9 -1 7 -3z m-79 -56
c-12 -24 -76 -64 -89 -56 -6 3 -33 -11 -62 -31 -28 -20 -66 -41 -83 -46 -17
-6 -38 -16 -46 -22 -13 -9 -13 -9 -2 6 28 35 266 178 247 148 -10 -16 11 -12
25 5 17 21 23 19 10 -4z m-2769 -96 c13 -19 28 -35 33 -35 4 0 5 -11 2 -25 -6
-23 -5 -24 21 -12 16 7 47 23 70 35 23 12 47 22 53 22 11 0 7 -36 -10 -98 -5
-19 -5 -30 1 -27 5 4 9 15 9 26 0 35 16 20 27 -25 10 -46 6 -57 -31 -86 -18
-14 -18 -12 -12 29 6 48 -2 52 -10 5 -2 -16 -9 -38 -15 -49 -10 -20 -72 -65
-89 -65 -7 0 -21 55 -22 87 0 5 -4 18 -9 30 -15 40 19 35 67 -9 24 -22 46 -39
49 -37 2 2 -18 22 -45 44 -43 35 -49 44 -44 69 4 20 3 26 -5 22 -6 -4 -9 -11
-7 -15 8 -13 -10 -32 -26 -26 -19 8 -19 35 0 58 15 16 14 17 -1 11 -9 -3 -17
-10 -17 -15 0 -22 -27 -6 -44 25 -18 33 -18 35 0 65 10 17 21 31 25 31 3 0 17
-16 30 -35z m257 -2 c0 -10 6 -46 15 -79 8 -34 11 -67 7 -74 -10 -16 -42 -9
-46 10 -6 31 -13 55 -14 55 -1 0 -3 17 -5 39 -2 21 -9 43 -14 50 -8 9 -1 13
24 14 27 2 34 -1 33 -15z m989 -438 c8 -23 2 -26 -69 -31 l-63 -6 45 25 c53
30 78 33 87 12z m-292 -165 c-4 -6 5 -10 19 -10 19 0 26 -5 26 -19 0 -11 -4
-23 -10 -26 -5 -3 -10 -13 -10 -22 0 -9 -8 -33 -17 -54 -20 -42 -58 -58 -66
-27 -3 10 -2 16 3 13 10 -6 23 43 14 57 -4 6 -3 8 3 5 12 -8 26 20 17 34 -3 5
0 9 6 9 6 0 10 8 9 18 -2 23 0 32 7 32 3 0 2 -4 -1 -10z m485 -39 c0 -4 18
-17 40 -30 22 -12 40 -26 40 -31 0 -5 11 -12 25 -16 14 -3 22 -11 18 -17 -4
-6 0 -8 10 -4 10 3 17 2 17 -3 0 -19 -26 -9 -64 25 -22 19 -44 35 -50 35 -13
0 -76 43 -76 52 0 3 9 4 20 1 11 -3 20 -8 20 -12z m220 -153 c0 -6 -6 -5 -15
2 -8 7 -15 14 -15 16 0 2 7 1 15 -2 8 -4 15 -11 15 -16z m-500 -8 c0 -5 -8
-10 -17 -10 -15 0 -16 2 -3 10 19 12 20 12 20 0z m40 6 c0 -2 -7 -7 -16 -10
-8 -3 -12 -2 -9 4 6 10 25 14 25 6z m-264 -23 c-2 -12 -13 -19 -32 -20 l-29
-2 30 9 c32 8 25 13 -15 10 -37 -3 -43 -10 -23 -26 17 -14 17 -15 -2 -12 -12
2 -20 11 -21 23 -1 29 0 30 49 33 38 2 45 -1 43 -15z m432 -10 c4 -28 0 -29
-150 -48 -57 -8 -58 -7 -58 17 0 27 -3 26 130 44 25 3 47 8 49 10 10 9 26 -4
29 -23z m-315 -10 c-7 -2 -19 -2 -25 0 -7 3 -2 5 12 5 14 0 19 -2 13 -5z
m-232 -16 c-11 -11 -141 -17 -141 -6 0 4 26 9 58 11 85 5 93 5 83 -5z m329 -7
c0 -11 -30 -21 -42 -14 -7 5 -4 12 7 20 18 13 35 10 35 -6z m644 12 c3 -5 -1
-9 -9 -9 -8 0 -12 4 -9 9 3 4 7 8 9 8 2 0 6 -4 9 -8z m-1124 -12 c0 -5 -8 -10
-17 -10 -15 0 -16 2 -3 10 19 12 20 12 20 0z m400 -20 c24 -15 -8 -39 -60 -44
-172 -16 -228 -18 -235 -6 -14 22 20 38 95 45 41 4 76 7 77 8 7 7 111 5 123
-3z m-312 -40 c-3 -24 -6 -25 -78 -26 -83 -1 -100 3 -100 20 0 25 23 32 101
32 79 0 80 -1 77 -26z m-268 -46 c0 -2 -11 -4 -25 -4 -14 0 -25 4 -25 9 0 4
11 6 25 3 14 -2 25 -6 25 -8z m-166 0 c12 -5 13 -10 5 -26 -6 -11 -9 -33 -7
-48 l4 -28 -80 5 c-45 3 -82 6 -84 8 -3 3 130 94 140 94 3 1 13 -2 22 -5z
m293 0 c-3 -3 -12 -4 -19 -1 -8 3 -5 6 6 6 11 1 17 -2 13 -5z m340 -29 c2 -16
6 -37 10 -45 12 -30 11 -39 -9 -46 -19 -6 -32 0 -33 14 -1 4 -5 25 -10 47 -4
22 -9 46 -11 53 -2 9 6 12 24 10 20 -2 26 -9 29 -33z m-1711 -66 c-15 -21 -28
-39 -30 -39 -2 0 8 30 22 67 23 58 27 64 30 40 2 -18 -6 -43 -22 -68z m1534
70 c21 -5 -7 -7 -73 -5 -59 2 -111 7 -115 11 -4 4 26 5 65 2 50 -3 71 -2 66 6
-4 6 -1 7 8 2 7 -5 29 -12 49 -16z m-237 4 c-7 -2 -21 -2 -30 0 -10 3 -4 5 12
5 17 0 24 -2 18 -5z m-1323 -58 c-16 -32 -19 -35 -16 -14 5 29 29 74 34 61 1
-4 -7 -26 -18 -47z m1233 36 c12 -1 17 -9 17 -27 0 -26 0 -26 -62 -19 -71 8
-83 15 -74 42 6 18 12 19 54 12 26 -4 55 -8 65 -8z m434 -32 c-7 -4 -23 -10
-35 -14 -20 -6 -23 -4 -20 11 4 21 49 36 60 20 4 -6 2 -14 -5 -17z m-98 7 c15
-9 14 -33 -1 -42 -7 -5 -46 -7 -88 -5 -41 1 -100 3 -131 5 -65 2 -96 20 -77
43 10 12 37 14 149 10 75 -2 142 -7 148 -11z m-846 -213 c-6 -16 -39 -26 -54
-17 -9 5 -7 11 5 20 22 16 55 14 49 -3z m-816 -145 c-3 -67 -12 -127 -21 -148
l-15 -35 -3 75 -2 75 -4 -70 -4 -70 -14 52 c-11 44 -11 58 1 90 7 21 14 30 14
20 1 -10 5 -16 10 -13 5 4 12 0 14 -6 3 -7 3 9 0 35 -5 42 10 107 25 107 2 0
2 -51 -1 -112z m647 67 c-4 -8 -11 -15 -16 -15 -6 0 -5 6 2 15 7 8 14 15 16
15 2 0 1 -7 -2 -15z m22 -220 c53 -89 56 -97 44 -125 -7 -16 -20 -30 -29 -31
-12 0 -12 -2 -2 -6 7 -3 23 6 35 20 19 23 31 26 110 32 49 4 102 8 118 10 29
4 46 -9 28 -20 -14 -9 -13 -48 2 -63 9 -9 7 -12 -12 -13 -14 0 -33 -2 -42 -4
-9 -2 -53 -6 -97 -9 -74 -6 -81 -5 -91 14 -6 11 -16 20 -22 20 -6 0 -3 -9 6
-19 21 -23 27 -11 -73 -139 -35 -45 -68 -82 -73 -82 -5 0 -6 6 -2 13 6 9 5 9
-8 0 -8 -7 -18 -10 -21 -6 -4 3 -51 21 -105 39 -76 25 -97 36 -97 50 0 14 7
18 25 17 l25 -2 -22 11 c-13 6 -23 15 -23 19 0 11 114 87 165 110 22 10 32 19
22 19 -10 0 -56 -25 -103 -55 -76 -50 -86 -54 -107 -43 -12 7 -23 14 -25 15
-7 3 32 69 68 114 21 27 59 80 84 118 41 61 52 71 84 76 20 4 42 8 47 10 27 9
38 -2 91 -90z m-207 56 c-18 -25 -57 -47 -66 -38 -7 7 58 67 72 67 13 0 12 -5
-6 -29z m-542 -73 c-3 -8 -6 -5 -6 6 -1 11 2 17 5 13 3 -3 4 -12 1 -19z m488
-5 c-9 -16 -26 -36 -36 -45 -11 -9 -19 -19 -17 -21 5 -8 -63 -89 -69 -83 -3 3
-14 1 -24 -5 -11 -5 -19 -6 -19 -2 0 15 72 83 89 84 10 0 11 2 4 6 -28 11 38
93 75 93 11 0 11 -6 -3 -27z m1070 -3 c-27 -12 -43 -12 -25 0 8 5 22 9 30 9
10 0 8 -3 -5 -9z m239 -33 c-3 -9 -16 -17 -28 -18 -11 0 -28 -2 -36 -4 -44 -8
-163 -25 -165 -23 -1 2 -5 13 -9 24 -6 20 -1 23 59 33 36 6 84 14 108 17 23 4
44 8 46 10 10 10 31 -24 25 -39z m-1770 1 c4 -17 2 -28 -4 -28 -5 0 -10 14
-10 32 0 36 4 35 14 -4z m1483 26 c-3 -3 -12 -4 -19 -1 -8 3 -5 6 6 6 11 1 17
-2 13 -5z m-158 -28 c-12 -10 -59 -15 -59 -6 0 5 14 10 32 10 17 0 29 -2 27
-4z m64 -8 c-2 -5 -13 -8 -24 -8 -10 0 -19 3 -19 8 0 4 11 7 24 7 13 0 22 -3
19 -7z m130 -12 c6 -16 -65 -52 -82 -42 -19 12 -12 26 22 40 42 19 54 19 60 2z
m-260 -13 c-7 -2 -19 -2 -25 0 -7 3 -2 5 12 5 14 0 19 -2 13 -5z m-123 -7 c0
-9 -30 -14 -35 -6 -4 6 3 10 14 10 12 0 21 -2 21 -4z m-1112 -22 c4 2 22 -18
40 -45 30 -43 33 -53 27 -91 -9 -48 -8 -49 -43 62 -12 36 -21 58 -21 49 -1 -9
6 -36 14 -59 22 -64 18 -70 -14 -20 -23 37 -28 52 -23 85 3 22 7 34 9 27 3 -6
8 -10 11 -8z m1380 -6 c4 -22 -23 -33 -103 -42 -33 -3 -71 -8 -85 -10 -90 -16
-98 -16 -105 1 -7 20 18 43 49 44 12 0 30 2 41 4 11 2 43 7 70 11 28 3 51 7
52 8 1 1 19 1 40 1 28 0 39 -5 41 -17z m-331 -13 c3 -9 3 -18 0 -21 -9 -9 -48
16 -42 27 9 14 35 11 42 -6z m-739 -72 c-17 -41 -36 -60 -65 -68 -14 -3 -27
-4 -29 -2 -2 2 5 22 16 45 18 38 30 45 77 51 10 1 10 -5 1 -26z m-303 -104 c7
-22 6 -23 -9 -8 -9 8 -19 33 -22 55 l-5 39 14 -31 c8 -17 18 -41 22 -55z m19
28 c17 -25 26 -51 25 -75 0 -20 -3 -30 -6 -22 -2 8 -7 22 -9 30 -5 13 -6 13
-14 0 -6 -9 -10 -10 -10 -3 0 6 5 15 10 18 7 4 7 12 0 25 -13 25 -33 76 -26
70 3 -3 16 -22 30 -43z m318 32 c16 -9 19 -17 14 -41 -5 -27 -27 -58 -40 -58
-3 0 -6 25 -6 55 0 59 1 61 32 44z m-76 -73 c-4 -24 -7 -67 -7 -95 -2 -51 -2
-51 -43 -62 -38 -11 -45 -9 -96 18 l-55 30 -1 51 c-1 29 0 52 2 52 2 0 26 -14
54 -31 48 -29 51 -33 48 -70 -1 -21 1 -41 3 -44 3 -3 6 12 7 32 2 69 14 132
25 141 11 9 36 17 60 21 5 0 6 -19 3 -43z m20 -52 c-4 -20 -10 -34 -13 -30 -3
3 -2 21 1 42 4 20 10 34 13 30 3 -3 2 -21 -1 -42z m-253 -101 c14 -35 21 -63
17 -63 -4 0 -11 12 -15 27 -4 19 -9 23 -14 14 -6 -10 -10 -9 -14 4 -4 9 -3 13
3 10 15 -9 12 8 -10 56 -11 24 -19 51 -19 59 0 17 18 -19 52 -107z m17 14 c-1
-14 -8 -4 -20 28 -25 63 -25 68 0 27 11 -18 20 -42 20 -55z m236 -39 l-15 -43
-1 34 c0 19 6 50 13 70 11 33 12 34 15 8 2 -14 -4 -45 -12 -69z m-132 1 c12
-11 16 -78 5 -84 -14 -9 -89 44 -90 63 0 9 -2 26 -4 36 -2 11 -1 24 1 28 5 8
63 -21 88 -43z m104 -31 c2 -42 1 -44 -35 -55 -21 -6 -39 -11 -39 -10 -7 7
-12 74 -6 83 8 12 63 33 73 28 3 -2 6 -22 7 -46z m66 -75 c5 -45 2 -69 -11
-99 l-17 -39 -11 80 c-10 67 -10 87 3 125 15 42 16 44 23 19 3 -14 9 -53 13
-86z m-178 7 c12 -8 24 -32 28 -53 l7 -37 -49 30 c-27 16 -49 35 -49 42 0 7
-3 25 -6 40 l-5 27 27 -17 c14 -9 36 -24 47 -32z m-112 4 c3 -8 2 -12 -4 -9
-6 3 -10 10 -10 16 0 14 7 11 14 -7z m227 -1 c0 -5 2 -17 5 -28 11 -54 18
-153 15 -221 -1 -40 -3 -42 -41 -52 -39 -10 -40 -9 -41 17 0 22 -1 23 -8 6 -8
-19 -8 -19 -19 0 -6 11 -12 14 -12 7 0 -19 -60 28 -60 48 0 9 -9 33 -20 55
-24 47 -28 79 -5 49 8 -10 15 -30 15 -44 0 -16 3 -21 8 -13 5 9 16 -2 31 -33
12 -26 24 -44 27 -41 3 2 -4 20 -15 38 -12 19 -21 42 -21 51 0 9 -4 18 -9 20
-4 2 -11 21 -15 43 l-8 40 23 -30 c36 -48 44 -53 19 -11 l-23 38 24 -12 c47
-25 56 -39 54 -86 -1 -25 2 -47 6 -49 4 -3 5 -15 3 -28 -4 -20 -4 -21 5 -2 5
11 7 29 5 40 -2 11 -5 38 -8 60 -3 22 -8 59 -12 82 -6 41 -6 42 27 52 44 12
49 12 50 4z m-220 -89 c5 -15 8 -29 5 -31 -2 -2 -8 10 -14 26 -13 38 -5 41 9
5z m294 -58 c-4 -34 -16 -68 -31 -91 -13 -17 -13 -15 -8 25 8 55 20 90 32 90
5 0 8 -11 7 -24z"/>
<path d="M2768 7342 c-10 -2 -18 -5 -18 -7 0 -2 16 -45 35 -95 41 -107 42
-114 14 -100 -11 7 -23 9 -26 6 -3 -3 7 -10 22 -16 15 -6 30 -8 33 -5 6 6 -5
42 -41 138 -14 37 -22 68 -17 68 6 1 14 2 19 3 5 0 12 4 15 7 7 6 -10 7 -36 1z"/>
<path d="M2826 7341 c-4 -5 3 -7 14 -4 23 6 26 13 6 13 -8 0 -17 -4 -20 -9z"/>
<path d="M2878 7343 c6 -2 18 -2 25 0 6 3 1 5 -13 5 -14 0 -19 -2 -12 -5z"/>
<path d="M2640 7200 c0 -5 5 -10 11 -10 5 0 7 5 4 10 -3 6 -8 10 -11 10 -2 0
-4 -4 -4 -10z"/>
<path d="M2670 7186 c0 -2 9 -6 20 -9 11 -3 18 -1 14 4 -5 9 -34 13 -34 5z"/>
<path d="M2730 7160 c8 -5 20 -10 25 -10 6 0 3 5 -5 10 -8 5 -19 10 -25 10 -5
0 -3 -5 5 -10z"/>
<path d="M3505 7400 c-11 -4 -44 -11 -72 -15 -29 -4 -55 -10 -58 -14 -4 -8
146 17 154 25 9 9 -5 11 -24 4z"/>
<path d="M6001 7084 c0 -11 3 -14 6 -6 3 7 2 16 -1 19 -3 4 -6 -2 -5 -13z"/>
<path d="M5840 6880 c-8 -5 -10 -10 -5 -10 6 0 17 5 25 10 8 5 11 10 5 10 -5
0 -17 -5 -25 -10z"/>
<path d="M5795 6850 c-3 -6 1 -7 9 -4 18 7 21 14 7 14 -6 0 -13 -4 -16 -10z"/>
<path d="M5755 6830 c-3 -6 1 -7 9 -4 18 7 21 14 7 14 -6 0 -13 -4 -16 -10z"/>
<path d="M5592 6824 c7 -6 47 -11 100 -13 31 -1 36 -4 32 -18 -5 -16 -4 -16 6
0 7 10 10 20 8 22 -6 5 -151 15 -146 9z"/>
<path d="M5707 6763 c-4 -3 -7 -11 -7 -17 0 -6 5 -5 12 2 6 6 9 14 7 17 -3 3
-9 2 -12 -2z"/>
<path d="M5668 6679 c-14 -27 -23 -49 -19 -49 8 0 54 90 49 96 -2 1 -15 -20
-30 -47z"/>
<path d="M3540 6896 c0 -2 8 -10 18 -17 15 -13 16 -12 3 4 -13 16 -21 21 -21
13z"/>
<path d="M6250 6889 c0 -4 7 -22 15 -40 8 -19 14 -27 14 -19 0 14 -28 72 -29
59z"/>
<path d="M6210 6806 c0 -2 7 -7 16 -10 8 -3 12 -2 9 4 -6 10 -25 14 -25 6z"/>
<path d="M6394 6466 c1 -8 5 -18 8 -22 4 -3 5 1 4 10 -1 8 -5 18 -8 22 -4 3
-5 -1 -4 -10z"/>
<path d="M6399 6428 c-5 -18 -6 -38 -1 -34 7 8 12 36 6 36 -2 0 -4 -1 -5 -2z"/>
<path d="M6000 6289 c0 -5 5 -7 10 -4 6 3 10 8 10 11 0 2 -4 4 -10 4 -5 0 -10
-5 -10 -11z"/>
<path d="M6050 6288 c0 -9 41 -78 46 -78 3 0 -2 12 -10 28 -21 37 -36 58 -36
50z"/>
<path d="M5965 6260 c-3 -5 -2 -10 4 -10 5 0 13 5 16 10 3 6 2 10 -4 10 -5 0
-13 -4 -16 -10z"/>
<path d="M5924 6219 c-19 -22 -19 -22 4 -8 12 8 22 17 22 21 0 12 -6 9 -26
-13z"/>
<path d="M5600 6083 c0 -6 8 -17 18 -24 16 -13 16 -13 2 6 -8 11 -16 22 -17
24 -2 2 -3 0 -3 -6z"/>
<path d="M6150 6065 c0 -5 5 -17 10 -25 5 -8 10 -10 10 -5 0 6 -5 17 -10 25
-5 8 -10 11 -10 5z"/>
<path d="M5636 6031 c-3 -5 -22 -12 -42 -16 -20 -3 -34 -9 -31 -11 8 -8 87 16
87 26 0 12 -7 13 -14 1z"/>
<path d="M5465 5980 c-66 -25 -46 -25 30 0 33 10 51 19 40 19 -11 0 -42 -9
-70 -19z"/>
<path d="M4340 5490 c-9 -6 -10 -10 -3 -10 6 0 15 5 18 10 8 12 4 12 -15 0z"/>
<path d="M5215 5490 c-16 -7 -17 -9 -3 -9 9 -1 20 4 23 9 7 11 7 11 -20 0z"/>
<path d="M5170 5479 c0 -5 5 -7 10 -4 6 3 10 8 10 11 0 2 -4 4 -10 4 -5 0 -10
-5 -10 -11z"/>
<path d="M4247 5443 c-37 -20 -66 -37 -64 -39 4 -4 137 65 137 72 0 6 0 6 -73
-33z"/>
<path d="M5105 5469 c5 -6 55 0 55 7 0 3 -13 3 -29 2 -16 -1 -28 -5 -26 -9z"/>
<path d="M4993 5453 c-21 -7 -26 -10 -12 -8 14 3 44 7 65 11 21 3 41 8 43 10
9 9 -58 0 -96 -13z"/>
<path d="M4930 5440 c-13 -8 -12 -10 3 -10 9 0 17 5 17 10 0 12 -1 12 -20 0z"/>
<path d="M4865 5420 c-13 -5 -14 -9 -5 -9 8 0 24 4 35 9 13 5 14 9 5 9 -8 0
-24 -4 -35 -9z"/>
<path d="M4765 5395 c-38 -13 -90 -29 -114 -35 -23 -6 -41 -13 -39 -16 7 -6
210 54 222 66 13 13 15 13 -69 -15z"/>
<path d="M4095 5356 c-39 -25 -122 -80 -185 -124 -63 -43 -153 -103 -200 -132
-104 -66 -390 -285 -445 -343 -21 -22 77 52 181 136 60 49 168 127 239 174 72
47 162 108 200 135 39 26 115 78 170 115 55 36 104 70 110 74 21 19 -4 7 -70
-35z"/>
<path d="M4435 5310 c-8 -13 5 -13 25 0 13 8 13 10 -2 10 -9 0 -20 -4 -23 -10z"/>
<path d="M4400 5290 c-9 -6 -10 -10 -3 -10 6 0 15 5 18 10 8 12 4 12 -15 0z"/>
<path d="M4313 5247 c-29 -17 -51 -32 -49 -34 3 -4 116 57 116 63 0 8 -16 1
-67 -29z"/>
<path d="M4087 5102 c-88 -59 -201 -134 -252 -167 -52 -33 -100 -66 -107 -73
-21 -22 235 142 367 233 142 99 162 114 155 114 -3 1 -76 -47 -163 -107z"/>
<path d="M3026 4743 c-6 -14 -5 -15 5 -6 7 7 10 15 7 18 -3 3 -9 -2 -12 -12z"/>
<path d="M3187 4704 c-31 -25 -57 -48 -57 -51 0 -3 6 -1 13 4 40 31 103 78
106 80 2 2 2 5 0 8 -3 2 -30 -16 -62 -41z"/>
<path d="M2986 4673 c-6 -14 -5 -15 5 -6 7 7 10 15 7 18 -3 3 -9 -2 -12 -12z"/>
<path d="M2966 4633 c-6 -14 -5 -15 5 -6 7 7 10 15 7 18 -3 3 -9 -2 -12 -12z"/>
<path d="M2855 4559 c-49 -23 -106 -48 -125 -57 -106 -47 -133 -61 -115 -58
11 1 45 14 75 28 30 14 102 47 160 73 58 26 107 49 109 51 13 12 -24 -1 -104
-37z"/>
<path d="M2447 4533 c-4 -3 -7 -11 -7 -17 0 -6 5 -5 12 2 6 6 9 14 7 17 -3 3
-9 2 -12 -2z"/>
<path d="M2472 4505 c0 -16 2 -22 5 -12 2 9 2 23 0 30 -3 6 -5 -1 -5 -18z"/>
<path d="M2420 4490 c0 -5 -13 -32 -30 -60 -30 -51 -42 -82 -17 -45 37 55 67
115 57 115 -5 0 -10 -4 -10 -10z"/>
<path d="M2550 4430 c-13 -9 -13 -10 0 -10 8 0 22 5 30 10 13 9 13 10 0 10 -8
0 -22 -5 -30 -10z"/>
<path d="M2313 4245 c-3 -9 -3 -18 -1 -21 3 -3 8 4 11 16 6 23 -1 27 -10 5z"/>
<path d="M2414 4164 c-18 -14 -18 -14 6 -3 31 14 36 19 24 19 -6 0 -19 -7 -30
-16z"/>
<path d="M2162 4150 c0 -14 2 -19 5 -12 2 6 2 18 0 25 -3 6 -5 1 -5 -13z"/>
<path d="M2285 4139 c-4 -6 -5 -12 -2 -15 2 -3 7 2 10 11 7 17 1 20 -8 4z"/>
<path d="M2064 3906 c-3 -8 -4 -31 -2 -52 3 -36 4 -35 8 14 5 53 4 63 -6 38z"/>
<path d="M6115 5865 c-15 -26 -24 -49 -21 -52 3 -3 9 3 12 13 4 10 16 32 27
47 10 16 17 30 14 33 -2 3 -17 -16 -32 -41z"/>
<path d="M5499 5343 c-13 -16 -12 -17 4 -4 9 7 17 15 17 17 0 8 -8 3 -21 -13z"/>
<path d="M5399 5324 c17 -14 28 -31 24 -36 -3 -6 -1 -8 4 -5 6 4 24 -3 39 -14
l29 -21 -27 25 c-15 14 -24 28 -20 33 4 4 2 4 -4 1 -6 -4 -22 5 -34 18 -13 14
-28 25 -33 25 -4 0 5 -12 22 -26z"/>
<path d="M5394 5248 l-19 -23 23 19 c21 18 27 26 19 26 -2 0 -12 -10 -23 -22z"/>
<path d="M5515 5230 c10 -11 20 -20 23 -20 3 0 -3 9 -13 20 -10 11 -20 20 -23
20 -3 0 3 -9 13 -20z"/>
<path d="M5550 5206 c0 -2 8 -10 18 -17 15 -13 16 -12 3 4 -13 16 -21 21 -21
13z"/>
<path d="M5317 5169 c7 -7 15 -10 18 -7 3 3 -2 9 -12 12 -14 6 -15 5 -6 -5z"/>
<path d="M5637 5129 c12 -12 24 -21 27 -18 2 2 -8 13 -22 23 l-27 19 22 -24z"/>
<path d="M5751 5004 c-12 -27 -11 -28 4 -12 10 9 16 21 13 28 -2 7 -10 -1 -17
-16z"/>
<path d="M4300 4963 c0 -5 15 -10 33 -11 19 -1 48 -6 65 -11 18 -6 32 -6 32
-2 0 5 -19 11 -42 15 -24 4 -53 9 -65 13 -13 3 -23 1 -23 -4z"/>
<path d="M6090 4866 c0 -2 12 -12 28 -21 l27 -18 -19 21 c-17 20 -36 29 -36
18z"/>
<path d="M6150 4765 c13 -14 25 -23 28 -21 4 5 -35 46 -45 46 -3 0 4 -11 17
-25z"/>
<path d="M2850 2901 c0 -5 8 -11 18 -14 30 -10 149 -81 184 -109 18 -15 38
-28 45 -28 6 0 14 -6 16 -12 4 -10 6 -10 6 -1 1 7 -9 18 -21 24 -13 7 -25 15
-28 20 -5 8 -207 129 -215 129 -3 0 -5 -4 -5 -9z"/>
<path d="M4667 4849 c7 -7 15 -10 18 -7 3 3 -2 9 -12 12 -14 6 -15 5 -6 -5z"/>
<path d="M4778 4843 c12 -2 30 -2 40 0 9 3 -1 5 -23 4 -22 0 -30 -2 -17 -4z"/>
<path d="M4841 4846 c8 -7 89 -13 89 -6 0 4 -21 8 -47 9 -26 1 -45 -1 -42 -3z"/>
<path d="M5255 4820 c-3 -5 -1 -10 4 -10 6 0 11 5 11 10 0 6 -2 10 -4 10 -3 0
-8 -4 -11 -10z"/>
<path d="M5313 4823 c9 -2 23 -2 30 0 6 3 -1 5 -18 5 -16 0 -22 -2 -12 -5z"/>
<path d="M5163 4813 c9 -2 23 -2 30 0 6 3 -1 5 -18 5 -16 0 -22 -2 -12 -5z"/>
<path d="M5218 4813 c7 -3 16 -2 19 1 4 3 -2 6 -13 5 -11 0 -14 -3 -6 -6z"/>
<path d="M4650 4768 c0 -4 14 -8 30 -8 17 0 30 2 30 4 0 2 -13 6 -30 8 -16 3
-30 1 -30 -4z"/>
<path d="M6150 4708 c0 -9 51 -60 55 -56 3 3 -9 17 -25 33 -17 16 -30 26 -30
23z"/>
<path d="M5675 4540 c3 -5 8 -10 11 -10 2 0 4 5 4 10 0 6 -5 10 -11 10 -5 0
-7 -4 -4 -10z"/>
<path d="M5365 3970 c10 -11 20 -20 23 -20 3 0 -3 9 -13 20 -10 11 -20 20 -23
20 -3 0 3 -9 13 -20z"/>
<path d="M5436 3875 c4 -8 8 -15 10 -15 2 0 4 7 4 15 0 8 -4 15 -10 15 -5 0
-7 -7 -4 -15z"/>
<path d="M6181 3994 c0 -11 3 -14 6 -6 3 7 2 16 -1 19 -3 4 -6 -2 -5 -13z"/>
<path d="M6181 3934 c0 -11 3 -14 6 -6 3 7 2 16 -1 19 -3 4 -6 -2 -5 -13z"/>
<path d="M6115 3880 c3 -5 8 -10 11 -10 2 0 4 5 4 10 0 6 -5 10 -11 10 -5 0
-7 -4 -4 -10z"/>
<path d="M6040 3788 c-3 -26 -1 -43 3 -39 5 5 7 26 5 47 l-3 39 -5 -47z"/>
<path d="M2130 3820 c0 -5 5 -10 10 -10 6 0 10 5 10 10 0 6 -4 10 -10 10 -5 0
-10 -4 -10 -10z"/>
<path d="M5312 3640 c0 -19 2 -27 5 -17 2 9 2 25 0 35 -3 9 -5 1 -5 -18z"/>
<path d="M5304 3586 c-3 -8 -4 -29 -2 -48 3 -29 4 -27 8 15 5 48 3 58 -6 33z"/>
<path d="M3440 3701 c17 -10 96 -18 104 -10 3 3 -14 6 -37 7 -23 2 -51 5 -62
8 -16 4 -17 3 -5 -5z"/>
<path d="M3560 3690 c0 -5 5 -10 11 -10 5 0 7 5 4 10 -3 6 -8 10 -11 10 -2 0
-4 -4 -4 -10z"/>
<path d="M3590 3687 c3 -2 30 -8 59 -11 30 -4 52 -4 49 -1 -3 4 -30 9 -59 12
-30 3 -52 3 -49 0z"/>
<path d="M2275 3670 c-4 -17 -5 -34 -2 -36 3 -3 8 9 12 26 4 17 5 34 2 36 -3
3 -8 -9 -12 -26z"/>
<path d="M1977 3559 c7 -7 15 -10 18 -7 3 3 -2 9 -12 12 -14 6 -15 5 -6 -5z"/>
<path d="M5892 3430 c0 -14 2 -19 5 -12 2 6 2 18 0 25 -3 6 -5 1 -5 -13z"/>
<path d="M5832 3365 c-17 -37 -14 -45 4 -12 9 16 14 31 11 33 -2 2 -9 -7 -15
-21z"/>
<path d="M5769 3318 c4 -28 6 -29 9 -9 2 13 0 27 -5 32 -6 6 -7 -3 -4 -23z"/>
<path d="M5583 3300 c-13 -5 -23 -12 -23 -15 0 -9 16 -5 36 10 22 16 19 18
-13 5z"/>
<path d="M5513 3260 c-18 -11 -33 -22 -33 -24 0 -7 59 24 65 35 9 13 4 12 -32
-11z"/>
<path d="M5640 3211 c0 -6 4 -13 10 -16 6 -3 7 1 4 9 -7 18 -14 21 -14 7z"/>
<path d="M4643 3013 c9 -2 25 -2 35 0 9 3 1 5 -18 5 -19 0 -27 -2 -17 -5z"/>
<path d="M4588 3003 c6 -2 18 -2 25 0 6 3 1 5 -13 5 -14 0 -19 -2 -12 -5z"/>
<path d="M4340 2969 c-63 -15 -126 -30 -140 -33 -60 -11 -200 -49 -196 -53 2
-2 109 21 237 51 129 30 243 57 254 59 12 3 8 5 -10 5 -16 0 -82 -13 -145 -29z"/>
<path d="M5245 2960 c-16 -7 -17 -9 -3 -9 9 -1 20 4 23 9 7 11 7 11 -20 0z"/>
<path d="M5150 2930 c0 -5 7 -7 15 -4 8 4 15 8 15 10 0 2 -7 4 -15 4 -8 0 -15
-4 -15 -10z"/>
<path d="M5075 2910 c-16 -7 -17 -9 -3 -9 9 -1 20 4 23 9 7 11 7 11 -20 0z"/>
<path d="M5020 2890 c-8 -5 -10 -10 -5 -10 6 0 17 5 25 10 8 5 11 10 5 10 -5
0 -17 -5 -25 -10z"/>
<path d="M5234 2848 l-19 -23 23 19 c12 11 22 21 22 23 0 8 -8 2 -26 -19z"/>
<path d="M4768 2823 c7 -3 16 -2 19 1 4 3 -2 6 -13 5 -11 0 -14 -3 -6 -6z"/>
<path d="M5200 2805 c-7 -9 -11 -17 -9 -20 3 -2 10 5 17 15 14 24 10 26 -8 5z"/>
<path d="M4468 2783 c7 -3 16 -2 19 1 4 3 -2 6 -13 5 -11 0 -14 -3 -6 -6z"/>
<path d="M4415 2770 c-3 -6 1 -7 9 -4 18 7 21 14 7 14 -6 0 -13 -4 -16 -10z"/>
<path d="M4165 2719 c-60 -16 -159 -38 -219 -50 -93 -18 -132 -32 -260 -95
-149 -73 -232 -116 -244 -129 -12 -11 32 9 89 40 30 18 82 44 115 60 32 15 91
43 131 61 39 19 109 41 155 50 138 26 337 75 343 85 4 5 5 9 3 8 -2 -1 -52
-14 -113 -30z"/>
<path d="M2414 2118 c-4 -7 -14 -24 -22 -38 -14 -24 -13 -24 3 -5 20 24 37 55
31 55 -3 0 -8 -6 -12 -12z"/>
<path d="M2177 1963 c-4 -3 -7 -11 -7 -17 0 -6 5 -5 12 2 6 6 9 14 7 17 -3 3
-9 2 -12 -2z"/>
<path d="M2369 1773 c-13 -16 -12 -17 4 -4 9 7 17 15 17 17 0 8 -8 3 -21 -13z"/>
<path d="M2265 1699 c-62 -50 -77 -65 -50 -50 22 12 113 90 105 90 -3 0 -27
-18 -55 -40z"/>
<path d="M1990 1655 c0 -5 5 -17 10 -25 5 -8 10 -10 10 -5 0 6 -5 17 -10 25
-5 8 -10 11 -10 5z"/>
<path d="M2010 1605 c0 -5 5 -17 10 -25 5 -8 10 -10 10 -5 0 6 -5 17 -10 25
-5 8 -10 11 -10 5z"/>
<path d="M2335 1500 c-16 -17 -16 -20 -3 -15 9 4 19 13 22 21 7 19 2 18 -19
-6z"/>
<path d="M1895 1475 c0 -13 2 -26 5 -29 3 -3 6 5 5 19 0 13 -2 26 -5 29 -3 3
-6 -5 -5 -19z"/>
<path d="M2293 1469 c-9 -9 -6 -17 13 -32 14 -10 27 -17 30 -14 3 3 -4 10 -15
16 -12 7 -18 17 -15 26 7 18 2 19 -13 4z"/>
<path d="M1896 1368 c3 -81 14 -148 24 -148 4 0 4 18 -1 41 -5 22 -9 50 -8 62
4 46 -1 107 -9 107 -5 0 -8 -28 -6 -62z"/>
<path d="M5274 3349 c-19 -22 -19 -22 4 -10 12 6 22 16 22 21 0 15 -5 12 -26
-11z"/>
<path d="M2012 3160 c0 -14 2 -19 5 -12 2 6 2 18 0 25 -3 6 -5 1 -5 -13z"/>
<path d="M2251 2910 c13 -26 107 -150 115 -150 3 0 -19 31 -48 69 -29 38 -59
77 -66 87 -10 16 -11 15 -1 -6z"/>
<path d="M2490 2881 c0 -4 11 -18 25 -31 14 -13 25 -21 25 -17 0 3 -11 17 -25
31 -14 14 -25 22 -25 17z"/>
<path d="M2690 2820 c-6 -11 -8 -20 -6 -20 3 0 10 9 16 20 6 11 8 20 6 20 -3
0 -10 -9 -16 -20z"/>
<path d="M2553 2818 c2 -7 -7 -26 -22 -43 l-26 -30 30 27 c30 27 32 27 49 10
12 -11 11 -6 -5 16 -24 33 -34 41 -26 20z"/>
<path d="M2185 2761 c-6 -11 9 -23 19 -14 9 9 7 23 -3 23 -6 0 -12 -4 -16 -9z"/>
<path d="M2475 2710 l-28 -29 -19 24 c-11 14 -24 25 -29 25 -6 0 2 -12 17 -27
l27 -27 -21 -15 c-57 -43 -63 -49 -22 -25 43 26 52 34 94 82 28 32 14 27 -19
-8z"/>
<path d="M2255 2701 c-3 -5 -1 -12 5 -16 5 -3 10 1 10 9 0 18 -6 21 -15 7z"/>
<path d="M2467 2649 c7 -7 15 -10 18 -7 3 3 -2 9 -12 12 -14 6 -15 5 -6 -5z"/>
<path d="M2552 2564 c10 -10 20 -15 24 -12 3 4 -5 12 -18 18 -22 12 -22 12 -6
-6z"/>
<path d="M2635 2505 c11 -9 29 -21 40 -26 l20 -10 -20 16 c-11 9 -29 21 -40
26 l-20 10 20 -16z"/>
<path d="M2085 2880 c10 -11 20 -20 23 -20 3 0 -3 9 -13 20 -10 11 -20 20 -23
20 -3 0 3 -9 13 -20z"/>
<path d="M5405 2810 c-10 -11 -14 -20 -8 -20 5 0 18 9 28 20 10 11 14 20 8 20
-5 0 -18 -9 -28 -20z"/>
<path d="M2357 980 c3 -11 9 -22 13 -25 5 -3 6 4 3 15 -3 11 -9 22 -13 25 -5
3 -6 -4 -3 -15z"/>
<path d="M2381 894 c0 -11 3 -14 6 -6 3 7 2 16 -1 19 -3 4 -6 -2 -5 -13z"/>
<path d="M2250 886 c0 -3 9 -10 20 -16 11 -6 20 -8 20 -6 0 3 -9 10 -20 16
-11 6 -20 8 -20 6z"/>
<path d="M2304 863 c13 -13 90 -33 98 -25 4 4 2 14 -3 22 -9 13 -10 12 -5 -2
3 -10 4 -18 3 -18 -1 0 -24 7 -51 15 -27 8 -46 12 -42 8z"/>
<path d="M1970 438 c14 -17 12 -34 -2 -20 -7 7 -16 12 -22 12 -5 0 -1 -6 10
-14 25 -19 45 -2 21 19 -9 8 -12 10 -7 3z"/>
<path d="M3411 6924 c0 -11 3 -14 6 -6 3 7 2 16 -1 19 -3 4 -6 -2 -5 -13z"/>
<path d="M3401 6884 c0 -11 3 -14 6 -6 3 7 2 16 -1 19 -3 4 -6 -2 -5 -13z"/>
<path d="M3390 6846 c0 -8 -11 -23 -25 -34 -14 -11 -25 -23 -25 -27 0 -5 9 0
20 10 20 18 20 17 20 -25 0 -24 2 -41 4 -39 6 6 16 129 11 129 -3 0 -5 -6 -5
-14z"/>
<path d="M3428 6813 c7 -3 16 -2 19 1 4 3 -2 6 -13 5 -11 0 -14 -3 -6 -6z"/>
<path d="M2780 6796 c0 -2 7 -9 15 -16 9 -7 15 -8 15 -2 0 5 -7 12 -15 16 -8
3 -15 4 -15 2z"/>
<path d="M2876 6725 c10 -8 23 -15 28 -15 6 0 1 7 -10 15 -10 8 -23 15 -28 15
-6 0 -1 -7 10 -15z"/>
<path d="M3383 6670 c0 -25 2 -35 4 -22 2 12 2 32 0 45 -2 12 -4 2 -4 -23z"/>
<path d="M2930 6686 c0 -2 8 -10 18 -17 15 -13 16 -12 3 4 -13 16 -21 21 -21
13z"/>
<path d="M2990 6641 c0 -6 4 -13 10 -16 6 -3 7 1 4 9 -7 18 -14 21 -14 7z"/>
<path d="M3285 6569 c-4 -6 -5 -12 -2 -15 2 -3 7 2 10 11 7 17 1 20 -8 4z"/>
<path d="M3256 6515 c-9 -26 -7 -32 5 -12 6 10 9 21 6 23 -2 3 -7 -2 -11 -11z"/>
<path d="M3460 6516 c0 -3 9 -10 20 -16 11 -6 20 -8 20 -6 0 3 -9 10 -20 16
-11 6 -20 8 -20 6z"/>
<path d="M3730 6515 c0 -7 110 -88 114 -84 2 2 -23 23 -55 46 -33 24 -59 41
-59 38z"/>
<path d="M3235 6471 c-3 -5 -2 -12 3 -15 5 -3 9 1 9 9 0 17 -3 19 -12 6z"/>
<path d="M3550 6467 c0 -3 26 -24 58 -48 31 -23 52 -36 45 -28 -14 17 -103 83
-103 76z"/>
<path d="M3941 6345 c52 -41 98 -75 104 -75 5 0 -2 8 -15 17 -14 9 -57 43 -97
75 -39 32 -75 58 -79 58 -3 0 36 -34 87 -75z"/>
<path d="M3701 6347 c2 -1 15 -11 29 -22 l25 -20 -19 23 c-11 12 -24 22 -29
22 -6 0 -8 -1 -6 -3z"/>
<path d="M3788 6277 c18 -18 29 -37 25 -42 -5 -4 -2 -5 5 0 10 5 6 15 -19 41
-18 19 -35 34 -38 34 -3 0 10 -15 27 -33z"/>
<path d="M4065 6260 c7 -11 65 -43 65 -36 0 2 -16 13 -36 25 -19 12 -32 16
-29 11z"/>
<path d="M4417 6126 c9 -16 81 -69 168 -123 33 -20 62 -39 65 -42 10 -12 52
-32 56 -28 3 3 -38 31 -90 63 -53 32 -96 62 -96 66 0 4 -6 8 -13 8 -8 0 -22 9
-32 20 -10 11 -24 20 -32 20 -8 0 -12 4 -9 9 3 5 -1 12 -9 15 -11 4 -14 2 -8
-8z"/>
<path d="M4406 6016 c10 -8 21 -12 24 -10 5 6 -21 24 -34 24 -6 0 -1 -6 10
-14z"/>
<path d="M3857 5999 c7 -7 15 -10 18 -7 3 3 -2 9 -12 12 -14 6 -15 5 -6 -5z"/>
<path d="M4440 5995 c0 -2 13 -13 30 -25 17 -12 28 -15 25 -8 -5 11 -55 42
-55 33z"/>
<path d="M3890 5980 c0 -5 5 -10 11 -10 5 0 7 5 4 10 -3 6 -8 10 -11 10 -2 0
-4 -4 -4 -10z"/>
<path d="M3940 5956 c0 -2 8 -10 18 -17 15 -13 16 -12 3 4 -13 16 -21 21 -21
13z"/>
<path d="M4006 5908 c3 -5 10 -6 15 -3 13 9 11 12 -6 12 -8 0 -12 -4 -9 -9z"/>
<path d="M3764 2161 c3 -5 16 -11 28 -14 22 -6 22 -5 4 8 -22 17 -40 20 -32 6z"/>
<path d="M3827 2129 c7 -7 15 -10 18 -7 3 3 -2 9 -12 12 -14 6 -15 5 -6 -5z"/>
<path d="M3860 2116 c0 -3 9 -10 20 -16 11 -6 20 -8 20 -6 0 3 -9 10 -20 16
-11 6 -20 8 -20 6z"/>
<path d="M3930 2077 c0 -3 12 -12 26 -22 15 -9 23 -12 20 -6 -7 11 -46 35 -46
28z"/>
<path d="M4050 1996 c0 -2 8 -10 18 -17 15 -13 16 -12 3 4 -13 16 -21 21 -21
13z"/>
<path d="M3440 1986 c0 -2 7 -7 16 -10 8 -3 12 -2 9 4 -6 10 -25 14 -25 6z"/>
<path d="M4110 1956 c0 -2 8 -10 18 -17 15 -13 16 -12 3 4 -13 16 -21 21 -21
13z"/>
<path d="M3507 1939 c7 -7 15 -10 18 -7 3 3 -2 9 -12 12 -14 6 -15 5 -6 -5z"/>
<path d="M4171 1907 c2 -1 13 -9 24 -17 19 -14 19 -14 6 3 -7 9 -18 17 -24 17
-6 0 -8 -1 -6 -3z"/>
<path d="M4620 1845 c7 -8 17 -12 23 -8 6 4 7 1 2 -7 -6 -10 -4 -12 8 -7 10 3
17 2 17 -3 0 -6 5 -10 10 -10 21 0 8 17 -25 33 -44 21 -51 21 -35 2z"/>
<path d="M4570 1841 c0 -10 7 -13 26 -10 4 0 10 -5 15 -12 4 -8 11 -10 15 -6
9 8 1 18 -18 21 -7 1 -19 5 -25 9 -8 5 -13 4 -13 -2z"/>
<path d="M4017 1809 c7 -7 15 -10 18 -7 3 3 -2 9 -12 12 -14 6 -15 5 -6 -5z"/>
<path d="M4695 1810 c-4 -7 -18 -10 -31 -7 -34 6 -30 0 14 -20 57 -26 59 -26
33 -8 -18 14 -20 19 -10 26 7 4 11 11 7 14 -3 4 -9 1 -13 -5z"/>
<path d="M4740 1791 c24 -20 40 -26 40 -16 0 2 -15 12 -32 20 l-33 16 25 -20z"/>
<path d="M4790 1771 c0 -11 68 -43 80 -39 6 2 -10 13 -35 25 -25 12 -45 18
-45 14z"/>
<path d="M4740 1761 c0 -9 71 -43 77 -38 2 3 -14 13 -37 24 -22 11 -40 17 -40
14z"/>
<path d="M3720 1723 c0 -5 19 -20 43 -33 23 -13 45 -28 49 -34 5 -8 8 -7 8 1
0 7 -15 20 -32 29 -18 9 -41 23 -50 32 -10 8 -18 11 -18 5z"/>
<path d="M4904 1715 c11 -8 24 -15 29 -15 9 0 40 -13 142 -60 168 -78 199 -91
226 -97 16 -3 26 -10 22 -16 -3 -5 -1 -7 5 -3 12 7 62 -13 62 -26 0 -4 5 -7
11 -6 17 4 31 -50 30 -116 -1 -70 7 -71 13 -2 3 48 -12 118 -29 135 -6 5 -41
20 -80 34 -38 14 -113 44 -165 67 -155 70 -273 120 -279 120 -3 0 3 -7 13 -15z"/>
<path d="M4855 1704 c135 -64 228 -104 231 -101 6 6 -239 118 -254 116 -4 0 7
-7 23 -15z"/>
<path d="M3900 1706 c0 -2 8 -10 18 -17 15 -13 16 -12 3 4 -13 16 -21 21 -21
13z"/>
<path d="M3830 1654 c0 -9 100 -77 100 -67 0 8 -44 42 -54 43 -5 0 -18 7 -28
17 -10 9 -18 12 -18 7z"/>
<path d="M3970 1656 c0 -3 9 -10 20 -16 11 -6 20 -8 20 -6 0 3 -9 10 -20 16
-11 6 -20 8 -20 6z"/>
<path d="M4036 1606 c10 -8 21 -12 24 -10 5 6 -21 24 -34 24 -6 0 -1 -6 10
-14z"/>
<path d="M4077 1589 c12 -15 73 -53 73 -46 0 2 -19 17 -42 32 -24 16 -38 22
-31 14z"/>
<path d="M5145 1575 c28 -14 87 -39 132 -58 l82 -33 -14 -29 -15 -30 25 30
c24 29 33 51 17 42 -4 -3 -24 3 -45 13 -21 10 -61 26 -90 36 -29 9 -69 25 -89
35 -21 11 -41 19 -45 18 -4 0 15 -11 42 -24z"/>
<path d="M3940 1581 c0 -6 4 -13 10 -16 6 -3 7 1 4 9 -7 18 -14 21 -14 7z"/>
<path d="M4440 1570 c0 -6 -4 -9 -8 -6 -5 3 -23 -27 -41 -67 -17 -40 -36 -79
-40 -87 -12 -21 -70 -17 -121 7 -25 13 -36 15 -29 7 6 -8 29 -19 51 -26 47
-14 41 -21 -37 -38 -177 -38 -185 -41 -185 -92 0 -48 33 -55 155 -33 80 15
106 15 130 -1 14 -9 25 -13 25 -9 0 4 25 -23 55 -61 31 -38 61 -67 68 -66 6 2
9 0 5 -3 -13 -13 10 -42 37 -47 16 -3 46 6 83 25 86 45 95 55 88 101 -6 34 -5
38 9 26 8 -7 15 -9 15 -6 0 4 12 1 28 -7 15 -8 47 -24 72 -35 25 -11 94 -43
153 -72 60 -28 114 -49 120 -47 7 3 3 8 -8 12 -11 4 -45 19 -75 33 -30 14
-113 51 -184 83 -70 31 -132 61 -137 66 -4 4 -10 22 -14 40 -4 27 -3 31 12 26
12 -5 11 -1 -5 15 -12 12 -23 30 -24 40 0 9 -2 23 -2 31 -1 17 -46 48 -46 32
0 -9 -5 -9 -20 -1 -11 6 -25 8 -30 5 -6 -3 -10 0 -10 7 0 8 -3 9 -8 3 -11 -15
-59 -18 -68 -4 -4 7 -3 10 3 6 6 -4 18 11 28 33 20 44 34 54 53 34 7 -8 9 -14
5 -14 -4 0 4 -8 20 -18 15 -10 24 -22 20 -26 -4 -4 0 -4 10 0 11 4 17 1 17 -7
0 -7 3 -9 6 -6 4 4 -4 21 -18 39 -22 28 -23 35 -11 46 7 7 10 18 7 24 -4 6 -3
8 4 4 11 -7 28 11 19 21 -9 8 -48 -8 -42 -18 10 -15 -42 -10 -55 6 -7 8 -16
12 -21 9 -5 -3 -8 0 -7 8 2 8 -8 14 -24 16 -16 2 -28 -2 -28 -8z m45 -54 c1
-14 -3 -26 -8 -26 -5 0 -6 -7 -3 -16 3 -9 2 -12 -4 -9 -6 4 -15 -7 -21 -24
-19 -53 -70 -69 -66 -22 1 16 5 27 9 25 3 -2 14 16 25 41 10 25 21 45 26 45 4
0 7 7 7 15 0 28 35 -1 35 -29z m70 -157 c0 -14 -6 -24 -15 -25 -13 -1 -104
-15 -120 -19 -12 -3 -97 -16 -120 -19 -14 -1 -32 -5 -40 -9 -18 -7 -167 -37
-186 -37 -15 0 -20 35 -6 44 5 3 22 8 38 10 39 8 73 14 106 21 15 4 41 8 58
10 17 2 34 6 38 9 4 2 25 7 47 11 22 3 72 12 110 19 85 16 90 16 90 -15z m64
9 c5 -13 7 -26 4 -30 -2 -5 0 -8 6 -8 6 0 7 -7 4 -17 -5 -12 -3 -14 8 -8 11 7
12 6 2 -7 -7 -8 -10 -17 -8 -20 6 -5 14 -37 19 -73 2 -11 4 -20 6 -20 1 0 3
-10 4 -22 2 -16 -4 -25 -18 -29 -12 -4 -27 -11 -34 -17 -22 -18 -49 -18 -63 0
-10 12 -10 15 -1 9 7 -4 12 -1 12 8 0 9 -3 15 -7 15 -18 -3 -36 1 -30 7 6 6
-18 37 -65 86 -24 25 -25 29 -10 37 28 14 92 23 92 12 0 -13 56 40 63 60 3 9
0 22 -6 28 -8 8 -8 11 1 11 7 0 16 -10 21 -22z m-219 -108 c0 -5 -5 -10 -11
-10 -5 0 -7 5 -4 10 3 6 8 10 11 10 2 0 4 -4 4 -10z m34 -25 c3 -8 11 -14 18
-13 7 2 12 -3 10 -10 -1 -8 16 -35 38 -62 26 -30 38 -54 34 -64 -3 -9 -9 -16
-13 -16 -4 0 -32 30 -61 68 -79 99 -75 92 -59 103 20 12 26 11 33 -6z"/>
<path d="M4542 1250 c0 -14 2 -19 5 -12 2 6 2 18 0 25 -3 6 -5 1 -5 -13z"/>
<path d="M4543 1201 c0 -11 5 -18 9 -15 4 3 5 11 1 19 -7 21 -12 19 -10 -4z"/>
<path d="M3970 1562 c0 -4 16 -17 35 -30 19 -12 35 -19 35 -15 -1 10 -70 54
-70 45z"/>
<path d="M4645 1540 c10 -11 20 -20 23 -20 3 0 -3 9 -13 20 -10 11 -20 20 -23
20 -3 0 3 -9 13 -20z"/>
<path d="M4185 1520 c10 -11 20 -20 23 -20 3 0 -3 9 -13 20 -10 11 -20 20 -23
20 -3 0 3 -9 13 -20z"/>
<path d="M4050 1512 c0 -4 10 -13 23 -21 22 -14 22 -14 3 8 -20 22 -26 25 -26
13z"/>
<path d="M4227 1499 c7 -7 15 -10 18 -7 3 3 -2 9 -12 12 -14 6 -15 5 -6 -5z"/>
<path d="M4100 1481 c0 -4 18 -17 40 -29 22 -11 40 -18 40 -14 0 4 -18 17 -40
29 -22 12 -40 18 -40 14z"/>
<path d="M4260 1486 c0 -2 7 -7 16 -10 8 -3 12 -2 9 4 -6 10 -25 14 -25 6z"/>
<path d="M4310 1460 c8 -5 22 -9 30 -9 10 0 8 3 -5 9 -27 12 -43 12 -25 0z"/>
<path d="M4511 1454 c0 -11 3 -14 6 -6 3 7 2 16 -1 19 -3 4 -6 -2 -5 -13z"/>
<path d="M4641 1444 c-22 -28 -20 -44 6 -44 9 0 13 6 10 14 -3 8 -1 16 5 18
13 5 20 38 8 38 -5 0 -18 -12 -29 -26z"/>
<path d="M4750 1426 c0 -2 7 -7 16 -10 8 -3 12 -2 9 4 -6 10 -25 14 -25 6z"/>
<path d="M5311 1389 c-6 -18 -9 -34 -7 -36 2 -2 9 10 15 28 6 18 9 34 7 36 -2
2 -9 -10 -15 -28z"/>
<path d="M4857 1379 c7 -7 15 -10 18 -7 3 3 -2 9 -12 12 -14 6 -15 5 -6 -5z"/>
<path d="M4910 1356 c0 -3 9 -10 20 -16 11 -6 20 -8 20 -6 0 3 -9 10 -20 16
-11 6 -20 8 -20 6z"/>
<path d="M5292 1320 c0 -14 2 -19 5 -12 2 6 2 18 0 25 -3 6 -5 1 -5 -13z"/>
<path d="M4990 1316 c0 -2 7 -7 16 -10 8 -3 12 -2 9 4 -6 10 -25 14 -25 6z"/>
<path d="M5423 1290 c-3 -42 -35 -170 -42 -170 -11 0 -31 -48 -31 -75 0 -21
-3 -23 -27 -15 -16 4 -46 16 -68 25 -22 10 -49 19 -60 20 -11 1 -31 7 -45 13
-60 25 -80 31 -80 24 0 -4 20 -14 45 -21 50 -15 51 -16 31 -37 -8 -7 -16 -19
-18 -26 -4 -10 -8 -10 -21 1 -18 14 -24 2 -7 -15 7 -7 -8 -34 -45 -85 -31 -41
-58 -72 -61 -71 -2 2 -21 1 -42 -2 -20 -3 -55 -9 -77 -12 -22 -3 -49 -14 -60
-23 -11 -10 -56 -26 -100 -35 -44 -9 -91 -19 -105 -22 -14 -3 -36 -7 -50 -9
-53 -8 -338 -68 -404 -85 -73 -20 -94 -33 -101 -68 -5 -29 38 -64 73 -57 14 2
46 7 71 11 25 3 125 24 221 45 96 22 185 41 197 44 13 2 59 11 103 20 43 9
110 18 147 19 37 2 86 7 108 10 l40 6 65 -92 c43 -61 73 -94 87 -96 27 -4 282
76 302 94 14 13 16 41 10 189 -1 44 2 89 8 100 5 11 11 43 13 70 1 28 4 64 5
80 4 50 -20 84 -64 91 -38 6 -39 7 -29 38 5 17 11 42 14 56 2 14 7 37 10 53 3
15 2 27 -3 27 -5 0 -9 -9 -10 -20z m38 -193 c17 -13 17 -22 4 -142 -2 -22 -4
-43 -4 -47 -1 -13 -46 -9 -59 4 -9 9 -12 9 -12 0 0 -7 14 -15 30 -18 29 -6 30
-9 31 -63 1 -31 2 -83 3 -116 2 -33 1 -67 -1 -76 -3 -11 -45 -29 -126 -54 -67
-21 -129 -40 -138 -42 -11 -2 -38 26 -78 81 -62 86 -74 110 -44 85 15 -13 15
-12 5 8 -9 15 -9 22 -1 25 6 2 13 26 14 53 2 27 0 44 -4 37 -6 -9 -12 -8 -24
5 -15 17 -12 24 44 98 84 113 92 121 97 107 2 -7 11 -12 20 -12 9 0 54 -15 99
-32 60 -24 83 -38 86 -53 2 -11 5 -3 6 18 1 27 -3 37 -14 37 -14 0 -20 13 -15
35 1 5 2 20 3 33 3 38 46 54 78 29z m-397 -286 c17 -18 15 -59 -2 -62 -67 -11
-71 -10 -67 21 2 16 -1 32 -6 36 -16 10 1 24 30 24 15 0 36 -9 45 -19z m-96
-37 c3 -18 -7 -22 -80 -37 -107 -23 -164 -35 -211 -47 -20 -6 -54 -13 -75 -16
-20 -3 -44 -7 -53 -10 -12 -3 -18 3 -21 21 -3 14 -2 25 1 26 18 2 105 20 131
26 8 2 29 5 47 6 17 1 35 5 39 10 4 4 16 -1 27 -10 18 -17 19 -17 16 1 -3 17
7 22 71 37 90 21 104 20 108 -7z m-451 -108 c-3 -7 -34 -19 -69 -26 -34 -7
-88 -19 -118 -26 -65 -17 -73 -17 -65 -4 3 6 -1 7 -9 4 -17 -6 -21 4 -8 22 6
9 88 34 114 35 4 0 22 5 40 10 18 5 46 12 63 15 16 3 32 7 34 10 8 8 23 -26
18 -40z m-291 -48 c3 -22 -1 -25 -56 -33 -78 -12 -85 -12 -88 11 -3 18 4 22
50 30 73 13 91 12 94 -8z"/>
<path d="M5175 962 l-26 -37 29 34 c26 29 31 31 35 15 4 -16 5 -16 6 -2 2 32
-17 28 -44 -10z"/>
<path d="M5220 930 c6 -11 12 -20 14 -20 2 0 2 9 -1 20 -3 11 -9 20 -15 20 -5
0 -4 -9 2 -20z"/>
<path d="M5125 894 c-9 -15 -12 -23 -6 -20 11 7 35 46 28 46 -3 0 -12 -12 -22
-26z"/>
<path d="M5235 871 c5 -34 12 -49 18 -40 2 2 -3 20 -10 39 l-14 35 6 -34z"/>
<path d="M5250 801 c0 -5 28 -29 63 -55 58 -45 49 -35 -30 34 -18 16 -33 25
-33 21z"/>
<path d="M5402 675 c15 -16 29 -27 31 -24 3 2 -10 15 -27 28 l-31 24 27 -28z"/>
<path d="M5080 686 c0 -2 7 -9 15 -16 13 -11 14 -10 9 4 -5 14 -24 23 -24 12z"/>
<path d="M5135 615 c40 -56 51 -66 29 -27 -10 18 -28 41 -38 50 -12 10 -8 0 9
-23z"/>
<path d="M4700 1280 c8 -5 20 -10 25 -10 6 0 3 5 -5 10 -8 5 -19 10 -25 10 -5
0 -3 -5 5 -10z"/>
<path d="M4747 1259 c7 -7 15 -10 18 -7 3 3 -2 9 -12 12 -14 6 -15 5 -6 -5z"/>
<path d="M5266 1243 c-6 -14 -5 -15 5 -6 7 7 10 15 7 18 -3 3 -9 -2 -12 -12z"/>
<path d="M4780 1246 c0 -2 7 -7 16 -10 8 -3 12 -2 9 4 -6 10 -25 14 -25 6z"/>
<path d="M5170 1240 c0 -5 5 -10 11 -10 5 0 7 5 4 10 -3 6 -8 10 -11 10 -2 0
-4 -4 -4 -10z"/>
<path d="M4829 1226 c11 -12 51 -29 51 -21 0 2 -14 10 -31 19 -23 12 -28 12
-20 2z"/>
<path d="M5225 1219 c11 -7 25 -19 30 -26 9 -12 11 -11 12 5 1 10 -4 19 -10
19 -7 0 -21 4 -32 8 l-20 7 20 -13z"/>
<path d="M4895 1190 c3 -4 14 -10 25 -13 11 -3 18 -2 15 3 -3 4 -14 10 -25 13
-11 3 -18 2 -15 -3z"/>
<path d="M4950 1171 c0 -4 16 -14 35 -23 19 -8 32 -12 30 -7 -8 12 -65 39 -65
30z"/>
<path d="M5250 1160 c0 -5 5 -10 11 -10 5 0 7 5 4 10 -3 6 -8 10 -11 10 -2 0
-4 -4 -4 -10z"/>
<path d="M5038 1123 c7 -3 16 -2 19 1 4 3 -2 6 -13 5 -11 0 -14 -3 -6 -6z"/>
<path d="M5251 1114 c0 -11 3 -14 6 -6 3 7 2 16 -1 19 -3 4 -6 -2 -5 -13z"/>
<path d="M2680 608 c-52 -26 -101 -56 -107 -65 -13 -16 -12 -47 3 -157 6 -45
5 -48 -12 -41 -70 30 -134 1 -134 -60 0 -18 8 -42 18 -53 24 -29 189 -95 220
-89 26 5 62 -4 119 -29 40 -18 78 -18 96 0 7 8 39 61 71 118 31 58 62 105 69
105 25 1 103 14 142 25 54 14 59 15 140 23 197 19 284 37 302 61 20 28 15 62
-11 79 -23 15 -39 15 -181 0 -22 -2 -71 -7 -110 -12 -38 -4 -83 -6 -100 -5
-92 7 -181 2 -204 -12 -4 -3 -37 23 -73 57 -101 96 -104 98 -129 101 -14 2
-64 -17 -119 -46z m228 -83 c45 -46 49 -54 30 -73 -8 -8 -29 7 -85 63 -67 67
-93 87 -93 69 0 -3 36 -41 80 -84 46 -45 80 -86 80 -97 0 -25 -103 -214 -111
-205 -11 11 -52 165 -51 186 1 14 -6 9 -21 -16 -12 -20 -37 -52 -55 -73 l-33
-36 -18 22 c-10 13 -21 48 -25 79 -10 88 -17 134 -21 148 -3 8 29 28 83 54 48
23 90 42 94 43 4 0 12 5 19 12 13 13 42 -8 127 -92z m689 -48 c-5 -13 -49 -27
-86 -27 -9 0 -17 9 -18 19 -1 15 8 21 45 28 50 10 68 4 59 -20z m-127 -17 c0
-24 -18 -29 -165 -45 -142 -16 -147 -16 -142 0 4 10 1 12 -11 8 -14 -5 -13 -2
3 15 15 14 39 22 90 27 39 3 95 9 125 11 30 3 56 7 58 9 10 9 42 -10 42 -25z
m-503 -29 c-3 -11 1 -28 9 -39 15 -22 9 -33 -13 -25 -22 9 -36 52 -22 69 17
20 32 17 26 -5z m163 -6 c0 -23 -4 -25 -50 -26 -27 -1 -58 -2 -67 -3 -11 -1
-19 7 -21 21 -4 24 5 27 86 31 50 2 52 1 52 -23z m-350 -174 c17 -57 30 -105
28 -106 -2 -2 -36 8 -77 22 -46 15 -77 21 -83 15 -6 -6 -28 -1 -58 14 -26 13
-60 26 -75 30 -55 14 -71 87 -21 100 26 6 122 -38 143 -65 37 -48 3 -50 -90
-5 -29 13 -45 18 -37 11 13 -12 133 -67 146 -67 2 0 3 3 3 8 -4 27 4 53 27 78
14 16 33 39 41 52 9 12 17 21 19 19 2 -2 17 -50 34 -106z m180 99 c13 -8 12
-15 -7 -47 -13 -21 -37 -66 -55 -100 -33 -64 -46 -77 -68 -63 -9 6 -2 27 31
86 24 44 50 91 58 107 16 30 19 31 41 17z"/>
<path d="M2750 519 c0 -5 5 -7 10 -4 6 3 10 8 10 11 0 2 -4 4 -10 4 -5 0 -10
-5 -10 -11z"/>
<path d="M2755 489 c-4 -6 -5 -12 -2 -15 2 -3 7 2 10 11 7 17 1 20 -8 4z"/>
<path d="M2752 435 c0 -16 2 -22 5 -12 2 9 2 23 0 30 -3 6 -5 -1 -5 -18z"/>
</g>
</svg>
