<?xml version="1.0" standalone="no"?>
<!DOCTYPE svg PUBLIC "-//W3C//DTD SVG 20010904//EN"
 "http://www.w3.org/TR/2001/REC-SVG-20010904/DTD/svg10.dtd">
<svg version="1.0" xmlns="http://www.w3.org/2000/svg"
 width="1600.000000pt" height="1600.000000pt" viewBox="0 0 1600.000000 1600.000000"
 preserveAspectRatio="xMidYMid meet">
<metadata>
Created by potrace 1.11, written by Peter Selinger 2001-2013
</metadata>
<g transform="translate(0.000000,1600.000000) scale(0.100000,-0.100000)"
fill="#000000" stroke="none">
<path d="M14965 15938 c40 -108 43 -115 73 -180 17 -35 46 -99 67 -143 20 -44
43 -93 50 -110 48 -103 134 -380 160 -515 3 -14 7 -36 10 -50 2 -14 7 -38 11
-55 3 -16 8 -38 11 -49 4 -16 1 -18 -23 -12 -16 4 -46 15 -69 25 -22 10 -56
24 -75 31 -38 14 -276 113 -325 135 -16 7 -71 31 -120 54 -50 22 -149 73 -220
114 -118 67 -183 109 -360 232 -33 23 -100 63 -150 90 -49 26 -113 60 -140 75
-70 37 -252 96 -360 115 -49 9 -99 19 -110 21 -257 51 -249 51 -402 -3 -70
-24 -136 -46 -147 -48 -21 -5 -34 -21 -67 -84 -13 -25 -29 -53 -36 -61 -24
-31 -83 -159 -79 -172 4 -12 10 -76 22 -258 6 -84 28 -243 40 -282 3 -10 7
-30 10 -45 17 -95 111 -395 208 -668 26 -71 62 -179 81 -240 45 -145 130 -386
197 -560 55 -141 83 -233 74 -242 -3 -3 -40 11 -83 32 -43 21 -100 48 -128 60
-27 13 -80 37 -118 54 -37 17 -69 31 -72 31 -2 0 -32 13 -67 29 -35 16 -148
66 -253 112 -104 46 -270 122 -368 171 -98 48 -179 88 -181 88 -2 0 -50 22
-107 48 -57 27 -149 67 -204 90 -55 22 -156 64 -225 93 -69 28 -134 52 -145
54 -11 1 -58 9 -105 18 -76 14 -189 29 -230 31 -8 1 -45 -14 -83 -31 -37 -18
-69 -33 -71 -33 -3 0 -35 -18 -73 -40 -68 -39 -70 -41 -118 -137 -92 -187 -92
-188 -89 -294 2 -103 12 -251 18 -284 2 -11 7 -44 11 -74 7 -54 86 -270 129
-351 13 -25 52 -99 88 -165 126 -234 222 -442 264 -570 7 -22 33 -98 59 -170
77 -217 161 -527 149 -546 -2 -4 -16 -6 -32 -4 -15 2 -52 6 -82 10 -30 3 -78
13 -106 21 -28 8 -60 17 -70 19 -84 20 -119 31 -229 75 -69 28 -185 82 -258
120 -125 67 -226 117 -447 222 -168 80 -418 176 -645 248 -33 11 -135 35 -226
54 -190 39 -199 39 -359 -22 l-95 -35 -69 -120 c-38 -66 -69 -125 -69 -131 4
-167 17 -346 29 -405 16 -81 49 -195 65 -223 5 -10 9 -23 9 -28 0 -6 42 -118
94 -248 51 -130 126 -320 166 -422 76 -195 77 -197 175 -411 63 -138 126 -316
140 -399 11 -61 7 -130 -9 -177 -7 -21 -12 -22 -59 -17 -45 6 -193 43 -237 60
-8 4 -76 28 -150 54 -168 60 -466 167 -629 227 -153 56 -380 165 -526 252 -60
36 -126 73 -145 83 -81 40 -225 88 -278 93 -31 2 -93 7 -137 10 -44 4 -95 8
-114 10 -22 3 -53 -4 -90 -22 -31 -14 -87 -40 -126 -58 -84 -39 -101 -56 -154
-159 -23 -44 -46 -85 -52 -92 -11 -13 -5 -208 9 -291 5 -29 7 -53 4 -53 -2 0
0 -6 5 -12 6 -7 20 -44 33 -81 12 -37 51 -116 87 -175 148 -241 271 -491 390
-792 36 -91 71 -179 79 -195 74 -169 222 -633 227 -712 l2 -36 -70 -19 c-115
-30 -188 -15 -421 88 -166 73 -451 189 -589 239 -90 32 -425 166 -565 225
-207 87 -404 146 -628 185 l-183 33 -132 -68 -132 -67 -41 -94 c-50 -114 -64
-174 -54 -231 5 -24 11 -68 15 -98 13 -109 36 -223 56 -283 59 -176 206 -463
411 -804 93 -155 170 -311 225 -458 75 -198 170 -499 175 -553 l5 -52 -31 -2
c-40 -2 -46 -1 -103 5 -43 5 -256 40 -308 51 -265 56 -443 113 -680 216 -22 9
-69 30 -105 45 -36 15 -78 33 -95 41 -16 7 -48 19 -70 27 -22 8 -85 31 -140
51 -107 40 -262 81 -341 91 -27 4 -60 8 -74 10 -13 3 -110 5 -216 6 l-191 2
-69 -38 c-38 -21 -97 -56 -131 -77 -59 -37 -64 -43 -79 -96 -8 -32 -22 -77
-29 -102 -34 -107 -37 -140 -18 -194 9 -28 18 -55 19 -61 1 -5 14 -42 28 -82
84 -235 166 -402 341 -693 45 -74 84 -142 88 -150 4 -8 23 -42 42 -75 19 -33
95 -181 169 -330 74 -148 167 -326 205 -393 39 -68 71 -128 71 -133 0 -5 3 -9
8 -9 18 0 62 -131 62 -184 0 -41 -24 -91 -40 -81 -6 4 -205 45 -340 71 -149
29 -528 118 -635 150 -169 50 -724 231 -858 280 -124 45 -152 50 -356 59 -62
3 -117 7 -121 10 -10 6 -105 -44 -198 -106 -40 -27 -77 -49 -82 -49 -4 0 -29
-64 -55 -142 -44 -132 -47 -148 -41 -213 3 -38 10 -86 16 -105 6 -19 13 -51
16 -70 9 -55 51 -205 64 -231 57 -110 130 -225 216 -339 55 -74 121 -166 146
-205 25 -38 64 -99 87 -135 58 -90 223 -427 318 -650 80 -187 125 -321 128
-386 l3 -62 -31 -7 c-18 -3 -45 -9 -62 -12 -16 -2 -49 -8 -71 -12 -127 -24
-347 24 -659 141 -107 41 -332 115 -670 221 -60 19 -191 64 -290 100 -164 60
-285 97 -314 97 -8 0 -11 -217 -11 -781 l0 -781 33 -56 c18 -31 36 -64 40 -72
10 -19 27 -47 51 -82 l18 -28 399 0 399 0 -10 26 c-35 92 -132 262 -329 574
-38 61 -111 184 -111 187 0 2 -12 22 -27 46 -47 73 -74 127 -61 122 7 -3 63
-20 123 -39 112 -34 281 -96 460 -168 55 -22 109 -44 120 -48 11 -4 36 -15 55
-23 92 -40 122 -50 249 -83 75 -19 147 -37 160 -40 14 -3 27 -7 30 -8 27 -16
565 -25 678 -11 24 3 64 8 90 11 26 4 75 21 108 39 33 18 89 48 125 68 122 65
123 66 163 146 77 158 104 237 101 304 -4 92 -13 188 -18 196 -3 4 -18 73 -35
154 -31 153 -90 350 -136 452 -15 33 -34 76 -42 95 -36 84 -148 298 -223 430
-21 36 -47 81 -57 100 -73 129 -201 337 -286 463 -55 81 -98 149 -95 152 2 2
40 -6 84 -20 43 -13 149 -42 234 -65 85 -23 277 -79 425 -125 237 -73 363
-110 415 -120 8 -2 40 -10 70 -19 30 -8 66 -17 80 -20 14 -3 68 -14 120 -26
294 -65 462 -82 670 -66 l95 7 120 81 c66 45 130 90 142 101 30 27 64 95 101
202 61 178 71 229 62 297 -5 35 -11 90 -15 122 -3 33 -8 63 -11 67 -2 4 -9 30
-14 58 -24 129 -98 304 -198 471 -54 91 -112 190 -129 220 -17 30 -48 87 -70
125 -134 233 -179 316 -250 460 -43 88 -111 222 -151 298 -39 75 -68 138 -64
138 33 6 271 -69 367 -116 158 -76 238 -110 401 -170 94 -35 206 -73 248 -85
42 -11 111 -29 154 -41 100 -27 314 -65 422 -75 47 -4 180 -8 295 -8 240 0
237 -1 408 103 89 54 168 136 181 187 4 13 10 33 15 46 5 13 9 26 10 30 1 4 9
24 17 45 17 40 18 44 29 118 13 82 9 128 -15 225 -5 19 -12 50 -15 69 -3 19
-8 37 -10 41 -2 3 -6 17 -8 31 -24 131 -148 518 -226 704 -72 173 -210 426
-331 605 -100 149 -209 354 -196 368 17 16 434 -141 719 -272 32 -14 60 -26
62 -26 2 0 28 -11 57 -24 29 -13 107 -47 173 -76 65 -29 155 -69 200 -90 153
-71 201 -89 320 -119 156 -39 181 -43 390 -57 50 -3 99 -7 110 -8 41 -4 193
37 275 73 205 92 225 102 250 137 14 19 34 46 45 59 22 26 108 189 111 208 6
42 17 165 17 182 -1 34 -82 436 -102 510 -61 218 -121 386 -201 561 -17 35
-30 66 -30 69 0 5 -116 252 -130 277 -5 9 -41 88 -81 175 -39 87 -89 195 -110
241 -21 46 -39 85 -39 88 0 2 10 -2 23 -10 12 -8 85 -42 162 -76 77 -33 154
-67 170 -74 96 -43 268 -117 315 -136 30 -12 69 -28 85 -35 17 -7 93 -39 170
-70 77 -31 154 -63 170 -71 43 -19 271 -91 330 -104 110 -25 342 -72 368 -75
16 -2 42 -7 58 -10 17 -4 40 -8 52 -10 12 -1 39 -6 59 -10 30 -6 59 1 150 34
216 77 224 82 266 142 53 75 139 238 146 274 3 17 9 46 13 65 12 56 4 404 -11
490 -3 14 -9 59 -15 100 -14 103 -101 350 -174 495 -34 66 -61 122 -62 125 -1
3 -22 48 -47 100 -127 264 -176 385 -252 617 -45 137 -48 153 -33 153 42 0
532 -180 597 -220 8 -5 64 -37 124 -72 59 -35 129 -75 155 -91 61 -37 153 -80
326 -155 81 -35 306 -98 380 -107 28 -3 61 -7 75 -10 14 -2 42 -7 63 -10 85
-12 113 -16 127 -20 8 -2 35 -7 60 -10 25 -3 60 -10 79 -15 32 -9 160 -6 211
4 62 13 207 81 250 117 57 48 133 182 154 272 15 62 15 131 1 322 -13 177 -31
282 -73 415 -14 47 -27 87 -27 90 -3 17 -43 128 -72 200 -43 104 -101 245
-118 285 -8 17 -53 122 -100 235 -48 113 -123 277 -166 365 -82 169 -144 325
-128 325 5 0 161 -61 347 -135 235 -95 428 -181 637 -285 341 -169 729 -358
763 -371 13 -5 35 -11 50 -14 15 -2 101 -20 191 -39 105 -23 169 -32 180 -27
9 5 30 11 47 14 17 3 71 21 120 42 49 20 97 39 108 42 47 14 113 107 205 291
l42 82 0 168 c-1 92 -3 181 -6 197 -19 104 -59 264 -75 299 -10 23 -32 77 -49
121 -18 44 -38 94 -46 110 -47 96 -309 813 -320 875 -5 29 -41 168 -49 190 -3
8 -7 29 -10 45 -2 17 -14 72 -25 124 -12 51 -20 96 -17 98 20 20 309 -115 496
-232 149 -94 237 -145 470 -272 270 -149 617 -304 775 -348 33 -9 74 -20 90
-25 17 -5 50 -12 75 -16 25 -4 47 -8 50 -9 46 -9 84 -16 123 -20 26 -3 67 -7
92 -10 35 -4 63 2 123 25 42 16 83 30 90 30 6 0 12 4 12 8 0 5 27 17 61 27 58
18 62 21 90 77 l29 57 0 468 c0 391 -3 477 -16 523 -8 30 -17 62 -19 70 -2 8
-4 16 -5 18 -3 2 -3 2 -14 52 -14 60 -143 375 -201 490 l-55 110 -375 0 -374
0 24 -62z"/>
</g>
</svg>
